<svg width="23" height="44" viewBox="0 0 23 44" fill="none" xmlns="http://www.w3.org/2000/svg">
<path fill-rule="evenodd" clip-rule="evenodd" d="M14.1052 18.2676L15.4539 17.3176C17.4287 15.9268 18.7075 13.6398 18.7075 11.0544C18.7075 6.82775 15.2811 3.40136 11.0544 3.40136C6.82775 3.40136 3.40136 6.82775 3.40136 11.0544C3.40136 13.6387 4.67906 15.9249 6.65246 17.3159L8.0002 18.2659L9.17315 39.9655H12.9323L14.1052 18.2676ZM16.1548 43.3669H5.95068L4.6928 20.096C1.85422 18.0951 0 14.7913 0 11.0544C0 4.94923 4.94923 0 11.0544 0C17.1596 0 22.1088 4.94923 22.1088 11.0544C22.1088 14.7929 20.2531 18.0979 17.4125 20.0985L16.1548 43.3669Z" fill="white"/>
</svg>
