<svg width="54" height="24" viewBox="0 0 54 24" fill="none" xmlns="http://www.w3.org/2000/svg">
<path d="M18.9975 5.76465H18.2324V7.4144H18.9975C19.4702 7.4144 19.777 7.09106 19.777 6.58769C19.777 6.08798 19.4702 5.76465 18.9975 5.76465Z" fill="white"/>
<path d="M25.2745 7.69931C25.2745 7.69564 25.2781 7.69564 25.2781 7.69197L25.2961 7.66625C25.3033 7.65522 25.3106 7.6442 25.3142 7.6442L30.3484 1.43836C30.3629 1.42366 30.4856 1.29139 30.5613 1.14442C30.6263 1.01215 30.6552 0.832106 30.6588 0.78434C30.6588 0.372822 30.3412 0.027441 29.9262 -0.00195312H0.987283C0.45679 0.00172114 0.0273438 0.438959 0.0273438 0.979077V15.0258C0.0273438 15.5622 0.45679 15.9995 0.987283 15.9995L29.9045 15.9921H29.9154C30.3123 15.9664 30.6335 15.6137 30.6335 15.1838C30.6299 15.1654 30.6047 14.9817 30.5397 14.8494C30.4675 14.7025 30.3376 14.5702 30.3376 14.5702L25.3358 8.39008C25.3214 8.37538 25.3033 8.35701 25.2745 8.32027L25.2709 8.31292C25.2095 8.22474 25.177 8.11818 25.177 8.00795C25.177 7.89773 25.2095 7.79485 25.2673 7.70666L25.2745 7.69931ZM9.29834 8.86406C8.72093 9.39683 7.9306 9.69077 7.07532 9.69077H6.20921V12.0496C6.20921 12.2628 6.0432 12.4318 5.83389 12.4318H4.1558C4.05476 12.4318 3.96093 12.3877 3.88875 12.3179C3.81658 12.2481 3.77688 12.1489 3.77688 12.046L3.79132 3.87807C3.79132 3.66864 3.96093 3.49595 4.16663 3.49595H7.00675C7.90534 3.49595 8.72093 3.79724 9.30916 4.34838C9.91183 4.91054 10.2438 5.71153 10.2438 6.60071C10.2474 7.49723 9.91183 8.30189 9.29834 8.86406ZM13.9862 12.0496C13.9862 12.2628 13.8165 12.4318 13.6108 12.4318H11.9328C11.7234 12.4318 11.5574 12.2591 11.5574 12.0496V3.82663C11.5574 3.6172 11.7234 3.44819 11.9255 3.44451L12.7664 3.42981H12.7772L13.6181 3.44451C13.8238 3.44819 13.9898 3.62088 13.9898 3.82663V12.0496H13.9862ZM22.8421 12.2076C22.7808 12.3436 22.6473 12.4281 22.5029 12.4281H20.6227C20.5109 12.4281 20.4062 12.3803 20.334 12.2921L18.2265 9.73853V12.0533C18.2265 12.2664 18.0605 12.4354 17.8512 12.4354H16.1731C16.072 12.4354 15.9782 12.3914 15.906 12.3215C15.8339 12.2517 15.7942 12.1525 15.7942 12.0496L15.8086 3.88175C15.8086 3.67232 15.9782 3.49963 16.1839 3.49963H19.0204C19.919 3.49963 20.7382 3.80092 21.3264 4.35206C21.9327 4.91422 22.2647 5.71521 22.2647 6.60438C22.2647 7.29147 22.0699 7.92344 21.6982 8.43417C21.4455 8.77955 21.1207 9.06614 20.7382 9.27558L22.7844 11.7961C22.8854 11.9137 22.9071 12.0717 22.8421 12.2076Z" fill="white"/>
<path d="M6.976 5.76465H6.21094V7.4144H6.976C7.44875 7.4144 7.75189 7.09106 7.75189 6.58769C7.75189 6.08798 7.44875 5.76465 6.976 5.76465Z" fill="white"/>
<path d="M34.7479 6.18866C34.8309 6.18866 34.9103 6.17396 34.9825 6.14089C35.0546 6.10782 35.1196 6.06373 35.1701 6.00862C35.2206 5.9535 35.2639 5.88737 35.2964 5.81021C35.3289 5.73672 35.3433 5.65589 35.3433 5.57138C35.3433 5.48687 35.3289 5.40604 35.2964 5.33255C35.2639 5.25907 35.2242 5.19293 35.1701 5.13414C35.116 5.07903 35.0546 5.03494 34.9825 5.00187C34.9103 4.9688 34.8309 4.9541 34.7479 4.9541H31.6118C31.5288 4.9541 31.4494 4.9688 31.3737 5.00187C31.2979 5.03494 31.2329 5.07903 31.1788 5.13414C31.1247 5.19293 31.0813 5.25539 31.0489 5.33255C31.02 5.40604 31.002 5.48687 31.002 5.57138V10.4177C31.002 10.5868 31.0561 10.7227 31.1607 10.8366C31.269 10.9468 31.3989 11.0093 31.5577 11.0277H34.7407C34.8237 11.0313 34.9031 11.0166 34.9752 10.9836C35.0474 10.9505 35.1124 10.9101 35.1629 10.855C35.2134 10.7999 35.2567 10.7337 35.2892 10.6602C35.3217 10.5868 35.3361 10.5059 35.3361 10.4214C35.3361 10.3369 35.3217 10.2561 35.2892 10.1789C35.2567 10.1018 35.217 10.0356 35.1629 9.9805C35.1088 9.92171 35.0474 9.87762 34.9752 9.84455C34.9031 9.81149 34.8237 9.79311 34.7407 9.79311H32.2109V8.51814H34.2246C34.3076 8.51814 34.387 8.50345 34.4592 8.47405C34.5314 8.44466 34.5963 8.40057 34.6541 8.34545C34.7118 8.29034 34.7551 8.2242 34.784 8.15439C34.8164 8.08091 34.8309 8.00375 34.8309 7.91556C34.8309 7.83105 34.8164 7.75022 34.784 7.67306C34.7551 7.5959 34.7082 7.52976 34.6541 7.47098C34.5999 7.41586 34.535 7.3681 34.4592 7.33503C34.387 7.30196 34.3076 7.28726 34.2246 7.29094H32.2109V6.19233H34.7479V6.18866Z" fill="white"/>
<path d="M41.1124 5.77937C41.1376 5.69854 41.1484 5.62138 41.1412 5.54055C41.134 5.45971 41.116 5.38623 41.0799 5.30907C41.0474 5.23558 40.9969 5.16944 40.9355 5.11066C40.8742 5.05554 40.8056 5.01145 40.737 4.98573C40.6649 4.96001 40.5963 4.95266 40.5241 4.95634C40.4519 4.96368 40.3834 4.98206 40.3148 5.0188C40.2462 5.05554 40.1849 5.10331 40.1344 5.16577L38.4238 7.10946L36.7205 5.16577C36.6663 5.10331 36.6014 5.05187 36.5328 5.0188C36.4642 4.98573 36.392 4.96368 36.3199 4.95634C36.2477 4.94899 36.1755 4.96001 36.1033 4.98573C36.0312 5.01145 35.9662 5.05187 35.9013 5.11066C35.8399 5.16944 35.7894 5.23191 35.7569 5.30907C35.7208 5.38255 35.7028 5.45971 35.6956 5.54055C35.6883 5.62138 35.6992 5.69854 35.7244 5.77937C35.7497 5.85653 35.7894 5.93002 35.8435 5.99248L37.6226 8.02068L35.8868 10.0048C35.8291 10.0709 35.7858 10.1444 35.7569 10.2216C35.728 10.2987 35.7136 10.3759 35.7136 10.453C35.7136 10.5302 35.728 10.6037 35.7605 10.6772C35.793 10.7507 35.8399 10.8131 35.9013 10.8719C35.9626 10.927 36.0312 10.9711 36.107 10.9968C36.1827 11.0226 36.2585 11.0336 36.3343 11.0299C36.4101 11.0262 36.4859 11.0042 36.5581 10.9711C36.6302 10.938 36.6952 10.8866 36.7529 10.8241L38.4166 8.92822L40.0875 10.8241C40.1452 10.8866 40.2065 10.938 40.2787 10.9711C40.3509 11.0042 40.4231 11.0262 40.5025 11.0299C40.5783 11.0336 40.6576 11.0226 40.7298 10.9968C40.8056 10.9711 40.8742 10.927 40.9391 10.8719C41.0005 10.8131 41.0474 10.7507 41.0799 10.6808C41.1124 10.611 41.1268 10.5339 41.1268 10.4567C41.1268 10.3796 41.1124 10.2987 41.0835 10.2216C41.0546 10.1444 41.0113 10.0709 40.9536 10.0048L39.2105 8.02068L40.9897 5.99248C41.0474 5.93002 41.0871 5.86021 41.1124 5.77937Z" fill="white"/>
<path d="M45.6678 5.63235C45.4621 5.42659 45.2239 5.26125 44.9496 5.14C44.6754 5.01875 44.3795 4.95996 44.0655 4.95996H42.3621C42.2791 4.95996 42.1997 4.97466 42.1276 5.00773C42.0554 5.04079 41.9904 5.08489 41.9327 5.14C41.8786 5.19879 41.8316 5.26125 41.8028 5.33841C41.7703 5.4119 41.7559 5.49273 41.7559 5.57724V10.4236C41.7559 10.5081 41.7703 10.5889 41.8028 10.6624C41.8316 10.7359 41.8786 10.802 41.9327 10.8535C41.9904 10.9086 42.0554 10.949 42.1276 10.9821C42.1997 11.0152 42.2791 11.0299 42.3621 11.0299C42.4451 11.0299 42.5245 11.0152 42.5967 10.9821C42.6689 10.949 42.7338 10.9086 42.7916 10.8535C42.8457 10.7984 42.8926 10.7359 42.9215 10.6624C42.954 10.5889 42.9684 10.5081 42.9684 10.4236V9.54545H44.0691C44.3831 9.54545 44.6754 9.48666 44.9533 9.36541C45.2275 9.24416 45.4693 9.08249 45.6714 8.87673C45.8771 8.67097 46.0395 8.42847 46.1586 8.14923C46.2777 7.86998 46.339 7.57237 46.339 7.25638C46.339 6.93672 46.2777 6.6391 46.1586 6.35618C46.0359 6.08061 45.8735 5.83811 45.6678 5.63235ZM45.0399 7.65687C44.9857 7.78547 44.9099 7.8957 44.8125 7.99491C44.7187 8.09411 44.6068 8.17127 44.4805 8.22639C44.3542 8.2815 44.2207 8.31089 44.0835 8.31089H42.9648V6.19084H44.0835C44.2207 6.19084 44.3506 6.22024 44.4769 6.27902C44.6032 6.33781 44.7115 6.41497 44.8053 6.51418C44.8991 6.61338 44.9749 6.72361 45.0326 6.85221C45.0904 6.98081 45.1193 7.11676 45.1193 7.25638C45.1229 7.39968 45.094 7.53195 45.0399 7.65687Z" fill="white"/>
<path d="M52.7604 7.18109C52.6882 6.92021 52.5836 6.67404 52.4536 6.44256C52.3201 6.21475 52.1649 6.00532 51.9773 5.81793C51.7896 5.63054 51.5875 5.46888 51.3638 5.3366C51.14 5.20433 50.8983 5.10145 50.6384 5.02429C50.3822 4.95081 50.1115 4.91406 49.8337 4.91406C49.5558 4.91406 49.2851 4.95081 49.0289 5.02429C48.7727 5.09778 48.5309 5.20066 48.3071 5.3366C48.0834 5.46888 47.8813 5.63054 47.6972 5.81793C47.5132 6.00532 47.358 6.21475 47.2281 6.44256C47.0982 6.67036 46.9971 6.91654 46.925 7.18109C46.8528 7.44196 46.8203 7.71753 46.8203 8.00045C46.8203 8.42666 46.8997 8.82716 47.0549 9.20193C47.2101 9.57671 47.4266 9.90005 47.6972 10.1793C47.9679 10.4585 48.2891 10.679 48.6572 10.8407C49.0253 11.0023 49.4186 11.0832 49.8373 11.0832C50.2559 11.0832 50.6492 11.0023 51.0173 10.8407C51.3854 10.679 51.7066 10.4585 51.9809 10.1793C52.2552 9.90005 52.4717 9.57304 52.6341 9.20193C52.7929 8.82716 52.8723 8.43034 52.8723 8.00045C52.8686 7.71753 52.8326 7.44563 52.7604 7.18109ZM51.5154 8.73163C51.4179 8.95943 51.2916 9.15417 51.1256 9.31951C50.9596 9.48485 50.7683 9.61713 50.5446 9.70898C50.3244 9.80451 50.0863 9.85228 49.8337 9.85228C49.581 9.85228 49.3465 9.80451 49.1263 9.70898C48.9062 9.61345 48.7149 9.48485 48.5525 9.31951C48.3901 9.15417 48.2602 8.95943 48.1664 8.73163C48.0726 8.5075 48.0256 8.26132 48.0256 8.00412C48.0256 7.74692 48.0726 7.5081 48.1664 7.28397C48.2602 7.05984 48.3901 6.8651 48.5525 6.69608C48.7149 6.52707 48.9062 6.39479 49.1263 6.29926C49.3465 6.20006 49.581 6.15229 49.8337 6.15229C50.0863 6.15229 50.3208 6.20006 50.5446 6.29926C50.7647 6.39847 50.9596 6.53074 51.1256 6.69608C51.2916 6.8651 51.4179 7.05984 51.5154 7.28397C51.6092 7.5081 51.6561 7.74692 51.6561 8.00412C51.6597 8.26132 51.6092 8.50382 51.5154 8.73163Z" fill="white"/>
<path d="M38.3772 21.0851C38.3376 21.0484 38.2906 21.0153 38.2365 20.9969C38.186 20.9749 38.1319 20.9639 38.0777 20.9639H37.125V21.831H38.0777C38.1319 21.831 38.186 21.8163 38.2365 21.7906C38.287 21.7649 38.3339 21.7281 38.3772 21.684C38.4206 21.6399 38.453 21.5922 38.4747 21.5371C38.4999 21.4819 38.5108 21.4305 38.5108 21.3754C38.5108 21.3166 38.4999 21.2652 38.4747 21.2137C38.453 21.166 38.4206 21.1219 38.3772 21.0851Z" fill="white"/>
<path d="M17.772 19.5804C17.6529 19.4592 17.5122 19.3636 17.3534 19.2901C17.191 19.2203 17.0214 19.1836 16.8373 19.1836C16.6569 19.1836 16.4837 19.2203 16.3249 19.2901C16.1661 19.36 16.0254 19.4592 15.9099 19.5804C15.7908 19.7017 15.697 19.845 15.6284 20.0066C15.5598 20.1683 15.5273 20.3447 15.5273 20.5284C15.5273 20.7158 15.5598 20.8921 15.6284 21.0575C15.697 21.2228 15.7908 21.3624 15.9099 21.4837C16.029 21.6049 16.1661 21.6968 16.3249 21.7666C16.4837 21.8364 16.6569 21.8695 16.8373 21.8695C17.0178 21.8695 17.191 21.8364 17.3534 21.7666C17.5122 21.6968 17.6529 21.6049 17.772 21.4837C17.8911 21.3624 17.9849 21.2228 18.0535 21.0575C18.1221 20.8921 18.1545 20.7194 18.1545 20.5284C18.1545 20.3447 18.1221 20.1683 18.0535 20.0066C17.9849 19.8413 17.8911 19.7017 17.772 19.5804Z" fill="white"/>
<path d="M53.2101 17.1367H0.821278C0.384614 17.1367 0.0273438 17.5005 0.0273438 17.9451V23.1074C0.0273438 23.552 0.384614 23.9157 0.821278 23.9157H53.2101C53.6468 23.9157 54.0041 23.552 54.0041 23.1074V17.9451C54.0005 17.5005 53.6468 17.1367 53.2101 17.1367ZM18.8616 21.3989C18.7462 21.6708 18.5874 21.9059 18.3889 22.108C18.1904 22.3101 17.9594 22.4718 17.6888 22.5857C17.4217 22.7032 17.1366 22.762 16.8335 22.762C16.5304 22.762 16.2453 22.7032 15.9782 22.5857C15.7112 22.4681 15.4802 22.3101 15.2817 22.108C15.0868 21.9059 14.9317 21.6671 14.8162 21.3989C14.7007 21.127 14.6466 20.8404 14.6466 20.5281C14.6466 20.3223 14.6718 20.1239 14.7224 19.9328C14.7729 19.7418 14.8487 19.5654 14.9425 19.3964C15.0363 19.2311 15.1518 19.0804 15.2817 18.9445C15.4152 18.8085 15.5632 18.6909 15.7256 18.5954C15.888 18.4999 16.0612 18.4227 16.2489 18.3713C16.4365 18.3162 16.6314 18.2904 16.8335 18.2904C17.0356 18.2904 17.2305 18.3162 17.4181 18.3713C17.6058 18.4264 17.779 18.4999 17.9414 18.5954C18.1038 18.6909 18.2518 18.8085 18.3853 18.9445C18.5188 19.0804 18.6343 19.2311 18.7317 19.3964C18.8256 19.5617 18.9013 19.7418 18.9555 19.9328C19.0096 20.1239 19.0349 20.3223 19.0349 20.5281C19.0349 20.8367 18.9771 21.127 18.8616 21.3989ZM23.701 18.9445C23.6794 18.9996 23.6469 19.0473 23.6072 19.0841C23.5675 19.1245 23.5206 19.1576 23.4665 19.1796C23.4123 19.2017 23.3582 19.2127 23.2968 19.2127H22.4091V22.277C22.4091 22.3395 22.3983 22.3983 22.373 22.4497C22.3477 22.5048 22.3189 22.5489 22.2792 22.5893C22.2395 22.6298 22.1926 22.6591 22.1384 22.6812C22.0843 22.7032 22.0266 22.7143 21.9652 22.7143C21.9039 22.7143 21.8461 22.7032 21.7956 22.6812C21.7415 22.6591 21.6982 22.6261 21.6585 22.5893C21.6188 22.5489 21.5863 22.5048 21.5646 22.4497C21.543 22.3946 21.5285 22.3395 21.5285 22.277V19.2127H20.6408C20.5794 19.2127 20.5217 19.2017 20.4712 19.1759C20.417 19.1539 20.3737 19.1208 20.334 19.0804C20.2943 19.04 20.2655 18.9922 20.2402 18.9371C20.2185 18.882 20.2077 18.8232 20.2077 18.7607C20.2077 18.6983 20.2185 18.6395 20.2402 18.5881C20.2619 18.5329 20.2943 18.4888 20.334 18.4484C20.3737 18.408 20.4206 18.3786 20.4712 18.3529C20.5253 18.3309 20.5794 18.3198 20.6408 18.3198H23.2932C23.3546 18.3198 23.4123 18.3309 23.4629 18.3566C23.517 18.3823 23.5639 18.4117 23.6036 18.4521C23.6469 18.4925 23.6758 18.5403 23.6974 18.5954C23.7191 18.6505 23.7299 18.7093 23.7299 18.7718C23.7335 18.8342 23.7263 18.893 23.701 18.9445ZM27.6815 20.0137C27.7429 20.0137 27.797 20.021 27.8511 20.0467C27.9053 20.0725 27.9522 20.1055 27.9919 20.1459C28.0316 20.1864 28.0641 20.2378 28.0857 20.2929C28.1074 20.348 28.1182 20.4068 28.1182 20.4693C28.1182 20.5317 28.1074 20.5869 28.0857 20.642C28.0641 20.6934 28.0316 20.7412 27.9919 20.7816C27.9522 20.822 27.9053 20.8514 27.8511 20.8734C27.797 20.8955 27.7429 20.9065 27.6815 20.9065H26.2236V21.8288H28.0568C28.1182 21.8288 28.1759 21.8398 28.2265 21.8655C28.2806 21.8875 28.3239 21.9206 28.3636 21.9647C28.4033 22.0051 28.4322 22.0529 28.4538 22.108C28.4755 22.1631 28.4863 22.2219 28.4863 22.2844C28.4863 22.3468 28.4755 22.4056 28.4538 22.4571C28.4322 22.5122 28.4033 22.5599 28.3636 22.5967C28.3239 22.6371 28.2806 22.6665 28.2265 22.6922C28.1723 22.7143 28.1182 22.7253 28.0568 22.7216H25.7508C25.6353 22.7106 25.5415 22.6628 25.4621 22.582C25.3863 22.5012 25.3466 22.4019 25.3466 22.2807V18.7681C25.3466 18.7056 25.3575 18.6468 25.3791 18.5954C25.4008 18.5403 25.4333 18.4925 25.4729 18.4521C25.5126 18.4117 25.5596 18.3786 25.6137 18.3566C25.6678 18.3345 25.7256 18.3235 25.7833 18.3235H28.0568C28.1182 18.3235 28.1759 18.3345 28.2265 18.3566C28.2806 18.3786 28.3239 18.4117 28.3636 18.4521C28.4033 18.4925 28.4322 18.5403 28.4538 18.5954C28.4755 18.6505 28.4863 18.7056 28.4863 18.7681C28.4863 18.8306 28.4755 18.8893 28.4538 18.9408C28.4322 18.9959 28.4033 19.0437 28.3636 19.0841C28.3239 19.1245 28.2806 19.1576 28.2265 19.1796C28.1723 19.2017 28.1182 19.2127 28.0568 19.2127H26.2236V20.01H27.6815V20.0137ZM34.2171 22.266C34.2171 22.3285 34.2062 22.3909 34.181 22.446C34.1593 22.5012 34.1268 22.5489 34.0835 22.593C34.0402 22.6371 33.9933 22.6665 33.9392 22.6922C33.885 22.7143 33.8237 22.729 33.7624 22.729C33.701 22.729 33.6433 22.7179 33.5927 22.6922C33.5422 22.6665 33.4953 22.6334 33.4592 22.593C33.4231 22.5526 33.3906 22.5048 33.3726 22.446C33.3509 22.3909 33.3401 22.3285 33.3401 22.266V19.2164H31.8064V21.3548C31.8064 21.5716 31.7775 21.7626 31.7162 21.9316C31.6548 22.1007 31.5682 22.244 31.4563 22.3615C31.3445 22.4791 31.2037 22.571 31.0413 22.6334C30.8753 22.6959 30.6913 22.729 30.482 22.7326H30.4747H30.4567C30.3953 22.7326 30.3376 22.7216 30.2835 22.6959C30.2293 22.6702 30.1824 22.6371 30.1427 22.5967C30.103 22.5563 30.0706 22.5085 30.0453 22.4534C30.02 22.3983 30.0092 22.3395 30.0092 22.277C30.0092 22.2146 30.02 22.1558 30.0453 22.1007C30.0669 22.0455 30.0994 22.0014 30.1427 21.961C30.1824 21.9206 30.2293 21.8912 30.2835 21.8692C30.3376 21.8471 30.3953 21.8361 30.4567 21.8361H30.4747C30.5613 21.8361 30.6335 21.8251 30.6877 21.8067C30.7454 21.7883 30.7923 21.7589 30.8284 21.7222C30.8645 21.6818 30.8897 21.634 30.9042 21.5716C30.9186 21.5128 30.9294 21.4356 30.9294 21.3474V18.7754C30.9294 18.713 30.9403 18.6542 30.9619 18.5991C30.9836 18.544 31.0161 18.4925 31.0521 18.4521C31.0918 18.4117 31.1351 18.3786 31.1893 18.3529C31.2434 18.3272 31.2975 18.3162 31.3589 18.3125H31.3733H31.3805H31.3986H33.7443H33.7624C33.8057 18.3125 33.849 18.3198 33.8887 18.3345C33.8923 18.3345 33.8959 18.3345 33.8995 18.3345C33.9031 18.3345 33.9031 18.3345 33.9031 18.3345C33.9933 18.3676 34.0691 18.4227 34.1268 18.4999C34.1846 18.577 34.2135 18.6689 34.2135 18.7718V22.266H34.2171ZM39.2802 21.928C39.2116 22.086 39.1214 22.2256 39.0023 22.3432C38.8832 22.4607 38.7461 22.5526 38.5873 22.6224C38.4321 22.6885 38.2625 22.7253 38.0857 22.7253H36.6999C36.6386 22.7253 36.5772 22.7143 36.5231 22.6922C36.4689 22.6702 36.422 22.6371 36.3787 22.5967C36.339 22.5563 36.3065 22.5085 36.2813 22.4534C36.2596 22.3983 36.2452 22.3395 36.2452 22.2733V18.7901C36.2452 18.7277 36.256 18.6652 36.2813 18.6101C36.3065 18.555 36.339 18.5035 36.3787 18.4631C36.4184 18.4227 36.4653 18.3896 36.5231 18.3639C36.5772 18.3419 36.6386 18.3272 36.6999 18.3272C36.8262 18.3272 36.9273 18.3676 37.0067 18.4484C37.086 18.5293 37.1257 18.6321 37.1257 18.7607V20.0725H38.0857C38.2625 20.0725 38.4321 20.1092 38.5873 20.179C38.7461 20.2525 38.8832 20.348 39.0023 20.473C39.1214 20.5979 39.2116 20.7412 39.2802 20.9028C39.3488 21.0645 39.3812 21.2372 39.3812 21.4172C39.3812 21.5973 39.3488 21.77 39.2802 21.928Z" fill="white"/>
</svg>
