<svg width="77" height="24" viewBox="0 0 77 24" fill="none" xmlns="http://www.w3.org/2000/svg">
<path d="M22.8782 -0.00195312H44.4609C44.6426 -0.00195312 44.8164 0.00601017 44.9823 0.0856431C45.5274 0.356395 45.638 0.985496 45.2351 1.51107C44.9191 1.9172 44.5794 2.3074 44.2555 2.70557C42.0593 5.38124 39.871 8.0569 37.6827 10.7326C37.501 10.9555 37.3035 11.1626 37.264 11.4652C37.2166 11.7758 37.2877 12.0465 37.4852 12.2934C39.9974 15.3592 42.5017 18.4172 45.0139 21.483C45.1403 21.6423 45.2904 21.7856 45.3694 21.9847C45.6064 22.5899 45.2351 23.1872 44.5873 23.227C44.532 23.227 44.4846 23.227 44.4372 23.227C30.0672 23.227 15.6972 23.227 1.32719 23.2349C0.853194 23.2349 0.466097 23.0996 0.197499 22.6855C0.0631996 22.4784 0 22.2634 0 22.0245C0 15.0885 0 8.1445 0 1.20847C0 0.547514 0.473997 0.0378634 1.13759 -0.00195312C1.22449 -0.00195312 1.31139 -0.00195312 1.39829 -0.00195312H22.8782ZM27.9974 13.9657C28.0764 14.0533 28.1159 14.0931 28.1554 14.1409C29.1745 15.2637 30.1857 16.3865 31.1969 17.5173C31.3628 17.7084 31.5524 17.796 31.7894 17.796C32.7137 17.796 33.638 17.796 34.5702 17.796C34.8309 17.796 35.06 17.7164 35.1864 17.4536C35.3049 17.1908 35.1706 16.9838 35.0047 16.8006C34.0488 15.7256 33.1008 14.6505 32.1449 13.5755C31.9158 13.3127 31.9158 13.3127 32.216 13.1375C34.6492 11.7041 34.7993 8.61433 33.3931 6.87834C32.4293 5.6918 31.1337 5.14234 29.6564 5.09456C28.0606 5.03881 26.4727 5.07067 24.8769 5.07067C24.4503 5.07067 24.2528 5.28568 24.2449 5.70773C24.237 9.52215 24.2291 13.3366 24.2133 17.151C24.2133 17.5651 24.4187 17.804 24.8295 17.804C25.6827 17.8199 26.5359 17.8199 27.3891 17.804C27.792 17.796 27.9974 17.5651 27.9974 17.159C27.9974 16.1795 27.9974 15.2079 27.9974 14.2364V13.9657ZM6.62015 11.4333H6.60435V17.151C6.60435 17.5492 6.80185 17.7881 7.20475 17.796C8.08954 17.8119 8.96644 17.8119 9.85123 17.796C10.2462 17.7881 10.4674 17.5173 10.4595 17.1271C10.4437 16.1078 10.4516 15.0885 10.4516 14.0772C10.4516 13.9259 10.4911 13.8781 10.6412 13.886C11.1152 13.894 11.5892 13.902 12.0711 13.8781C13.3825 13.8223 14.5754 13.4481 15.5629 12.5323C17.214 10.9954 17.3325 8.36747 15.8078 6.69518C14.8203 5.60421 13.5405 5.12641 12.1106 5.08659C10.5069 5.03881 8.89534 5.07067 7.28375 5.07067C6.81765 5.07067 6.61225 5.28568 6.61225 5.76347C6.62015 7.64281 6.62015 9.53808 6.62015 11.4333ZM18.1778 11.4174V17.159C18.1778 17.5651 18.3832 17.796 18.7861 17.796C19.5998 17.804 20.4214 17.804 21.243 17.796C21.6458 17.796 21.8512 17.5571 21.8512 17.159V5.72366C21.8512 5.31753 21.6458 5.08659 21.243 5.07863C20.4214 5.07067 19.6077 5.07067 18.7861 5.07863C18.3832 5.08659 18.1778 5.30957 18.1778 5.72366V11.4174Z" fill="white"/>
<path d="M76.5172 11.7375C76.4856 13.0435 76.1064 14.2061 75.1269 15.1219C73.5311 16.619 70.4264 16.5394 69.1624 14.0389C68.246 12.2313 68.3329 10.4077 69.5574 8.75129C70.9952 6.80825 73.9972 6.81621 75.4982 8.71147C76.2012 9.60336 76.4935 10.6227 76.5172 11.7375ZM74.7161 11.7614C74.7161 11.0845 74.5818 10.3917 74.1631 9.77059C73.4363 8.70351 71.6983 8.68758 70.9636 9.7467C70.2368 10.7979 70.1894 12.4702 70.8767 13.5532C71.6351 14.7715 73.4679 14.7715 74.2342 13.5611C74.566 13.0276 74.6845 12.4383 74.7161 11.7614Z" fill="white"/>
<path d="M57.3228 12.9232C56.6829 13.8469 56.0667 14.7468 55.4426 15.6466C55.2135 15.9652 54.9133 16.0926 54.5341 16.0209C54.1786 15.9572 53.9574 15.7422 53.8705 15.3998C53.7915 15.0733 53.91 14.7786 54.0996 14.5158C54.8027 13.5443 55.49 12.5648 56.201 11.5933C56.3037 11.45 56.2958 11.3624 56.201 11.227C55.6164 10.4227 55.0476 9.61045 54.4788 8.7982C54.2576 8.49559 54.2023 8.17706 54.384 7.83464C54.7079 7.24535 55.49 7.23739 55.9008 7.82667C56.3353 8.45577 56.7619 9.09284 57.1964 9.72194C57.2359 9.77768 57.2754 9.84139 57.3307 9.91306C57.386 9.84139 57.4334 9.78564 57.4729 9.7299C57.8995 9.1008 58.3261 8.4717 58.7527 7.85056C58.9423 7.57981 59.1793 7.38869 59.5269 7.38869C60.2142 7.38869 60.6092 8.0815 60.2695 8.67875C60.1747 8.84598 60.0562 8.99728 59.9456 9.15654C59.4479 9.85731 58.9581 10.5581 58.4525 11.2509C58.3577 11.3783 58.3735 11.4579 58.4604 11.5774C59.1714 12.5569 59.8745 13.5364 60.5776 14.5238C60.7672 14.7866 60.8857 15.0812 60.7988 15.4077C60.7119 15.7502 60.4828 15.9572 60.1352 16.0209C59.7639 16.0846 59.4637 15.9652 59.2425 15.6546C58.6579 14.8184 58.0733 13.9743 57.4966 13.1302C57.4334 13.0665 57.386 13.0028 57.3228 12.9232Z" fill="white"/>
<path d="M61.9415 11.7268C61.9415 10.612 61.9415 9.48914 61.9415 8.37428C61.9415 7.8487 62.218 7.48239 62.7394 7.47443C63.7427 7.4585 64.7618 7.34702 65.7572 7.57795C66.958 7.85667 67.7795 8.90782 67.819 10.1501C67.8506 10.9862 67.6294 11.7348 67.0212 12.332C66.5393 12.8098 65.9547 13.0567 65.2911 13.1204C64.8171 13.1682 64.3352 13.1523 63.8612 13.1443C63.6953 13.1443 63.6637 13.1921 63.6637 13.3513C63.6716 13.9486 63.6637 14.5379 63.6637 15.1351C63.6637 15.6687 63.3082 16.0429 62.7947 16.0429C62.2891 16.0429 61.9336 15.6607 61.9336 15.1272C61.9415 13.9884 61.9415 12.8576 61.9415 11.7268ZM63.6716 10.2855C63.6716 10.6597 63.6716 11.042 63.6716 11.4242C63.6716 11.4959 63.6558 11.5755 63.7664 11.5755C64.1772 11.5596 64.588 11.6074 64.9988 11.5516C65.6782 11.464 66.0574 10.9464 66.0179 10.1899C65.9863 9.52896 65.5281 9.06709 64.8724 9.0432C64.5169 9.03524 64.1614 9.0432 63.8059 9.03524C63.6716 9.03524 63.6558 9.09098 63.6558 9.20247C63.6716 9.55285 63.6716 9.91916 63.6716 10.2855Z" fill="white"/>
<path d="M48.418 11.7575C48.418 10.6585 48.418 9.55164 48.418 8.44474C48.418 7.80768 48.7577 7.44933 49.3897 7.44933C50.2982 7.44137 51.1987 7.44137 52.0993 7.44933C52.4469 7.44933 52.7471 7.55286 52.9051 7.89528C53.0473 8.20585 53.0157 8.50845 52.8182 8.78717C52.6365 9.04199 52.3758 9.09773 52.0835 9.09773C51.5068 9.09773 50.9302 9.1057 50.3535 9.09773C50.1955 9.09773 50.1323 9.12162 50.1402 9.30478C50.156 9.75072 50.1481 10.1967 50.1402 10.6347C50.1402 10.7939 50.1718 10.8417 50.3377 10.8417C50.8907 10.8258 51.4357 10.8258 51.9808 10.8417C52.5654 10.8497 52.8972 11.1841 52.8735 11.7256C52.8577 12.1079 52.5733 12.4344 52.202 12.4662C51.6016 12.522 50.9934 12.4901 50.393 12.4821C50.1876 12.4821 50.1481 12.5379 50.1481 12.729C50.1639 13.1829 50.1639 13.6368 50.1481 14.0828C50.1402 14.2659 50.2034 14.3057 50.3772 14.3057C51.0329 14.2978 51.6885 14.2978 52.3442 14.3057C52.7471 14.3137 53.0473 14.6004 53.0947 14.9906C53.15 15.4365 52.9209 15.8188 52.518 15.9143C52.4153 15.9382 52.3047 15.9462 52.202 15.9462C51.2698 15.9462 50.3377 15.9462 49.4055 15.9462C48.7656 15.9462 48.4338 15.6117 48.4338 14.9667C48.418 13.9076 48.418 12.8325 48.418 11.7575Z" fill="white"/>
<path d="M28 9.4665C28 9.13204 28 8.79759 28 8.45516C28 8.33571 28.0316 8.2959 28.158 8.2959C28.5372 8.30386 28.9164 8.2959 29.2956 8.30386C29.9513 8.31979 30.3937 8.78962 30.4016 9.45058C30.4095 10.1195 29.9987 10.5734 29.343 10.6371C28.9401 10.6769 28.5451 10.6451 28.1501 10.653C28.0316 10.653 28.0079 10.6053 28.0079 10.4938C28 10.1513 28 9.80893 28 9.4665Z" fill="white"/>
<path d="M10.457 9.46753C10.457 9.13307 10.457 8.79065 10.457 8.45619C10.457 8.32878 10.4965 8.29692 10.615 8.29692C11.01 8.30489 11.4129 8.281 11.8079 8.30489C12.2819 8.33674 12.6611 8.54379 12.827 9.02158C12.985 9.49938 12.9376 9.96125 12.5663 10.3355C12.3135 10.5904 11.9817 10.6461 11.642 10.6541C11.3023 10.662 10.9547 10.6541 10.615 10.6541C10.4965 10.6541 10.457 10.6222 10.457 10.4948C10.457 10.1524 10.457 9.80995 10.457 9.46753Z" fill="white"/>
</svg>
