<svg width="87" height="42" viewBox="0 0 87 42" fill="none" xmlns="http://www.w3.org/2000/svg">
<path d="M1.24769 0.132852H10.3854V11.0002H7.87524V2.33693H3.7732V11.0002H1.24769V0.132852Z" fill="white"/>
<path d="M17.2771 11.092C16.471 11.092 15.7363 10.9339 15.0731 10.6175C14.4098 10.3012 13.8435 9.88795 13.3741 9.37775C12.9047 8.85734 12.5373 8.2655 12.272 7.60224C12.0169 6.93897 11.8894 6.2553 11.8894 5.55122C11.8894 4.83693 12.022 4.14816 12.2873 3.48489C12.5629 2.82163 12.9404 2.23999 13.42 1.74C13.9098 1.22979 14.4863 0.82673 15.1496 0.530812C15.8129 0.224689 16.5373 0.0716274 17.3231 0.0716274C18.1292 0.0716274 18.8639 0.229791 19.5271 0.546118C20.1904 0.862444 20.7567 1.28081 21.2261 1.80122C21.6955 2.32163 22.0578 2.91346 22.3129 3.57673C22.568 4.24 22.6955 4.91346 22.6955 5.59714C22.6955 6.31142 22.5578 7.0002 22.2822 7.66346C22.0169 8.32673 21.6445 8.91346 21.1649 9.42367C20.6853 9.92367 20.1139 10.3267 19.4506 10.6329C18.7873 10.939 18.0629 11.092 17.2771 11.092ZM14.4455 5.58183C14.4455 6.0002 14.5067 6.40836 14.6292 6.80632C14.7516 7.19408 14.9302 7.54102 15.1649 7.84714C15.4098 8.15326 15.7108 8.39816 16.068 8.58183C16.4251 8.76551 16.8333 8.85734 17.2924 8.85734C17.772 8.85734 18.1904 8.7604 18.5476 8.56653C18.9047 8.37265 19.2006 8.12265 19.4353 7.81653C19.67 7.5002 19.8435 7.14816 19.9557 6.7604C20.0782 6.36244 20.1394 5.95938 20.1394 5.55122C20.1394 5.13285 20.0782 4.72979 19.9557 4.34204C19.8333 3.94408 19.6496 3.59714 19.4047 3.30122C19.1598 2.9951 18.8588 2.7553 18.5016 2.58183C18.1547 2.39816 17.7516 2.30632 17.2924 2.30632C16.8129 2.30632 16.3945 2.40326 16.0373 2.59714C15.6904 2.78081 15.3945 3.02571 15.1496 3.33183C14.9149 3.63795 14.7363 3.99 14.6139 4.38795C14.5016 4.77571 14.4455 5.17367 14.4455 5.58183Z" fill="white"/>
<path d="M27.585 3.89816C27.4523 5.27571 27.284 6.42877 27.0799 7.35734C26.886 8.27571 26.6156 9.0155 26.2687 9.57673C25.9217 10.1278 25.4778 10.5206 24.937 10.7553C24.3962 10.99 23.7227 11.1073 22.9166 11.1073L22.8401 8.90326C23.2074 8.86244 23.5136 8.77571 23.7584 8.64306C24.0136 8.5002 24.2278 8.23489 24.4013 7.84714C24.5748 7.44918 24.7176 6.88795 24.8299 6.16346C24.9523 5.43897 25.0697 4.46959 25.1819 3.2553L25.4574 0.132852H32.5135V11.0002H30.0033V2.33693H27.738L27.585 3.89816Z" fill="white"/>
<path d="M42.3227 8.79612V11.0002H34.685V0.132852H42.185V2.33693H37.1952V4.44918H41.4809V6.48489H37.1952V8.79612H42.3227Z" fill="white"/>
<path d="M43.1451 1.58693C43.6349 1.07673 44.1859 0.694077 44.7981 0.438974C45.4206 0.173668 46.1553 0.0410156 47.0022 0.0410156C48.0737 0.0410156 48.9257 0.275709 49.5584 0.745097C50.191 1.21448 50.5073 1.90836 50.5073 2.82673C50.5073 3.33693 50.3798 3.81142 50.1247 4.2502C49.8798 4.68897 49.4563 5.0155 48.8543 5.22979C49.5277 5.39306 50.0379 5.70938 50.3849 6.17877C50.742 6.63795 50.9206 7.19918 50.9206 7.86244C50.9206 8.37265 50.8186 8.83183 50.6145 9.24C50.4104 9.63795 50.1247 9.97469 49.7573 10.2502C49.4002 10.5257 48.9716 10.7349 48.4716 10.8778C47.9818 11.0206 47.4512 11.092 46.8798 11.092C46.0532 11.092 45.3288 10.9747 44.7063 10.74C44.0839 10.4951 43.492 10.1175 42.9308 9.60734L44.2165 7.7553C44.5635 8.08183 44.9359 8.34714 45.3339 8.55122C45.742 8.7451 46.2216 8.84204 46.7726 8.84204C47.2318 8.84204 47.6094 8.72979 47.9053 8.5053C48.2114 8.27061 48.3645 7.92367 48.3645 7.46449C48.3645 7.07673 48.2216 6.7502 47.9359 6.48489C47.6604 6.21959 47.2114 6.08693 46.589 6.08693H45.2726V4.34204H46.4053C46.9869 4.34204 47.4257 4.23999 47.7216 4.03591C48.0175 3.83183 48.1655 3.54102 48.1655 3.16346C48.1655 2.83693 48.0584 2.58693 47.8441 2.41346C47.6298 2.22979 47.2981 2.13795 46.8492 2.13795C46.3594 2.13795 45.9206 2.22469 45.5328 2.39816C45.1553 2.57163 44.7981 2.82163 44.4614 3.14816L43.1451 1.58693Z" fill="white"/>
<path d="M61.8095 0.132852V11.0002H59.2993V6.54612H54.9676V11.0002H52.4574V0.132852H54.9676V4.34204H59.2993V0.132852H61.8095Z" fill="white"/>
<path d="M63.9968 0.132852H66.5223V3.85224H68.4509C69.0325 3.85224 69.558 3.93387 70.0274 4.09714C70.507 4.2502 70.9152 4.47979 71.2519 4.78591C71.5886 5.08183 71.8489 5.44918 72.0325 5.88795C72.2162 6.32673 72.308 6.82163 72.308 7.37265C72.308 7.94408 72.2162 8.45428 72.0325 8.90326C71.8591 9.35224 71.604 9.73489 71.2672 10.0512C70.9407 10.3573 70.5478 10.592 70.0886 10.7553C69.6295 10.9186 69.1193 11.0002 68.558 11.0002H63.9968V0.132852ZM73.6703 11.0002V0.132852H76.1805V11.0002H73.6703ZM66.5223 8.87265H68.2519C68.7519 8.87265 69.1244 8.74 69.3693 8.47469C69.6244 8.19918 69.7519 7.82673 69.7519 7.35734C69.7519 6.92877 69.6244 6.57163 69.3693 6.28591C69.1142 5.99 68.7417 5.84204 68.2519 5.84204H66.5223V8.87265Z" fill="white"/>
<path d="M86.0139 8.79612V11.0002H78.3762V0.132852H85.8762V2.33693H80.8864V4.44918H85.1721V6.48489H80.8864V8.79612H86.0139Z" fill="white"/>
<path d="M3.75789 19.4492H4.32422L7.49259 15.1329H10.3242L6.42116 20.3829L10.6763 26.0002H7.87524L4.55381 21.7298H3.75789V26.0002H1.24769V15.1329H3.75789V19.4492Z" fill="white"/>
<path d="M14.4098 15.1329H16.6751L20.6393 26.0002H18.0679L17.2261 23.5665H13.8434L13.0169 26.0002H10.4455L14.4098 15.1329ZM16.8128 21.8369L15.5424 17.9951L14.2414 21.8369H16.8128Z" fill="white"/>
<path d="M31.1075 15.1329V26.0002H28.5973V21.5461H24.2657V26.0002H21.7555V15.1329H24.2657V19.342H28.5973V15.1329H31.1075Z" fill="white"/>
<path d="M35.8204 22.0971L40.9326 15.1329H42.8V26.0002H40.2898V19.2043L35.2388 26.0002H33.2949V15.1329H35.8204V22.0971Z" fill="white"/>
<path d="M47.479 19.4492H48.0453L51.2137 15.1329H54.0453L50.1423 20.3829L54.3974 26.0002H51.5963L48.2749 21.7298H47.479V26.0002H44.9688V15.1329H47.479V19.4492Z" fill="white"/>
<path d="M57.2584 26.1073C57.1462 26.1073 57.0135 26.0971 56.8605 26.0767C56.7074 26.0563 56.5492 26.0308 56.386 26.0002C56.2329 25.9594 56.0798 25.9084 55.9268 25.8471C55.7737 25.7859 55.636 25.7094 55.5135 25.6175L55.9574 23.5512C56.039 23.6022 56.1768 23.6788 56.3707 23.7808C56.5645 23.8829 56.7788 23.9339 57.0135 23.9339C57.2788 23.9339 57.5033 23.8624 57.687 23.7196C57.8707 23.5767 58.0186 23.342 58.1309 23.0155L54.1207 15.1329H56.8758L59.2635 20.5206L61.4676 15.1329H64.1156L60.289 23.3982C60.0645 23.888 59.8451 24.3063 59.6309 24.6533C59.4268 24.99 59.2074 25.2655 58.9727 25.4798C58.738 25.6941 58.4829 25.8522 58.2074 25.9543C57.9319 26.0563 57.6156 26.1073 57.2584 26.1073Z" fill="white"/>
<path d="M67.5991 18.8982C67.4665 20.2757 67.2981 21.4288 67.094 22.3573C66.9001 23.2757 66.6297 24.0155 66.2828 24.5767C65.9359 25.1277 65.492 25.5206 64.9512 25.7553C64.4103 25.99 63.7369 26.1073 62.9308 26.1073L62.8542 23.9033C63.2216 23.8624 63.5277 23.7757 63.7726 23.6431C64.0277 23.5002 64.242 23.2349 64.4155 22.8471C64.5889 22.4492 64.7318 21.888 64.844 21.1635C64.9665 20.439 65.0838 19.4696 65.1961 18.2553L65.4716 15.1329H72.5277V26.0002H70.0175V17.3369H67.7522L67.5991 18.8982Z" fill="white"/>
<path d="M74.6991 15.1329H77.2246V18.8522H79.1532C79.7348 18.8522 80.2604 18.9339 80.7297 19.0971C81.2093 19.2502 81.6175 19.4798 81.9542 19.7859C82.291 20.0818 82.5512 20.4492 82.7348 20.888C82.9185 21.3267 83.0104 21.8216 83.0104 22.3726C83.0104 22.9441 82.9185 23.4543 82.7348 23.9033C82.5614 24.3522 82.3063 24.7349 81.9695 25.0512C81.643 25.3573 81.2502 25.592 80.791 25.7553C80.3318 25.9186 79.8216 26.0002 79.2604 26.0002H74.6991V15.1329ZM84.3726 26.0002V15.1329H86.8828V26.0002H84.3726ZM77.2246 23.8726H78.9542C79.4542 23.8726 79.8267 23.74 80.0716 23.4747C80.3267 23.1992 80.4542 22.8267 80.4542 22.3573C80.4542 21.9288 80.3267 21.5716 80.0716 21.2859C79.8165 20.99 79.444 20.842 78.9542 20.842H77.2246V23.8726Z" fill="white"/>
<path d="M5.96197 41.092C5.15585 41.092 4.42116 40.9339 3.75789 40.6175C3.09463 40.3012 2.5283 39.888 2.05891 39.3778C1.58952 38.8573 1.22218 38.2655 0.956872 37.6022C0.70177 36.939 0.574219 36.2553 0.574219 35.5512C0.574219 34.8369 0.706872 34.1482 0.972178 33.4849C1.24769 32.8216 1.62524 32.24 2.10483 31.74C2.59463 31.2298 3.17116 30.8267 3.83442 30.5308C4.49769 30.2247 5.22218 30.0716 6.00789 30.0716C6.81401 30.0716 7.54871 30.2298 8.21197 30.5461C8.87524 30.8624 9.44157 31.2808 9.91095 31.8012C10.3803 32.3216 10.7426 32.9135 10.9977 33.5767C11.2528 34.24 11.3803 34.9135 11.3803 35.5971C11.3803 36.3114 11.2426 37.0002 10.9671 37.6635C10.7018 38.3267 10.3293 38.9135 9.84973 39.4237C9.37014 39.9237 8.79871 40.3267 8.13544 40.6329C7.47218 40.939 6.74769 41.092 5.96197 41.092ZM3.13034 35.5818C3.13034 36.0002 3.19157 36.4084 3.31401 36.8063C3.43646 37.1941 3.61504 37.541 3.84973 37.8471C4.09463 38.1533 4.39565 38.3982 4.75279 38.5818C5.10993 38.7655 5.5181 38.8573 5.97728 38.8573C6.45687 38.8573 6.87524 38.7604 7.23238 38.5665C7.58952 38.3726 7.88544 38.1226 8.12014 37.8165C8.35483 37.5002 8.5283 37.1482 8.64054 36.7604C8.76299 36.3624 8.82422 35.9594 8.82422 35.5512C8.82422 35.1329 8.76299 34.7298 8.64054 34.342C8.5181 33.9441 8.33442 33.5971 8.08952 33.3012C7.84463 32.9951 7.54361 32.7553 7.18646 32.5818C6.83953 32.3982 6.43646 32.3063 5.97728 32.3063C5.49769 32.3063 5.07932 32.4033 4.72218 32.5971C4.37524 32.7808 4.07932 33.0257 3.83442 33.3318C3.59973 33.638 3.42116 33.99 3.29871 34.388C3.18646 34.7757 3.13034 35.1737 3.13034 35.5818Z" fill="white"/>
<path d="M20.6032 32.3369H17.2971V41.0002H14.7869V32.3369H11.4655V30.1329H20.6032V32.3369Z" fill="white"/>
<path d="M29.5128 38.7961V41.0002H21.8751V30.1329H29.3751V32.3369H24.3853V34.4492H28.671V36.4849H24.3853V38.7961H29.5128Z" fill="white"/>
<path d="M34.9092 33.8982C34.7765 35.2757 34.6082 36.4288 34.4041 37.3573C34.2102 38.2757 33.9398 39.0155 33.5929 39.5767C33.2459 40.1278 32.8021 40.5206 32.2612 40.7553C31.7204 40.99 31.047 41.1073 30.2408 41.1073L30.1643 38.9033C30.5316 38.8624 30.8378 38.7757 31.0827 38.6431C31.3378 38.5002 31.5521 38.2349 31.7255 37.8471C31.899 37.4492 32.0419 36.888 32.1541 36.1635C32.2765 35.439 32.3939 34.4696 32.5061 33.2553L32.7816 30.1329H39.8378V41.0002H37.3276V32.3369H35.0623L34.9092 33.8982Z" fill="white"/>
<path d="M42.0092 30.1329H44.5347V33.8522H46.4633C47.0449 33.8522 47.5704 33.9339 48.0398 34.0971C48.5194 34.2502 48.9276 34.4798 49.2643 34.7859C49.601 35.0818 49.8612 35.4492 50.0449 35.888C50.2286 36.3267 50.3204 36.8216 50.3204 37.3726C50.3204 37.9441 50.2286 38.4543 50.0449 38.9033C49.8715 39.3522 49.6164 39.7349 49.2796 40.0512C48.9531 40.3573 48.5602 40.592 48.101 40.7553C47.6419 40.9186 47.1317 41.0002 46.5704 41.0002H42.0092V30.1329ZM44.5347 38.8726H46.2643C46.7643 38.8726 47.1368 38.74 47.3817 38.4747C47.6368 38.1992 47.7643 37.8267 47.7643 37.3573C47.7643 36.9288 47.6368 36.5716 47.3817 36.2859C47.1266 35.99 46.7541 35.842 46.2643 35.842H44.5347V38.8726Z" fill="white"/>
<path d="M59.3777 38.7961V41.0002H51.74V30.1329H59.24V32.3369H54.2502V34.4492H58.5359V36.4849H54.2502V38.7961H59.3777Z" fill="white"/>
<path d="M60.9475 41.0002V30.1329H65.5853C66.1057 30.1329 66.5802 30.24 67.0088 30.4543C67.4475 30.6686 67.82 30.9492 68.1261 31.2961C68.4424 31.6431 68.6873 32.0359 68.8608 32.4747C69.0445 32.9135 69.1363 33.3573 69.1363 33.8063C69.1363 34.2859 69.0496 34.7451 68.8761 35.1839C68.7128 35.6226 68.4781 36.0155 68.172 36.3624C67.8761 36.7094 67.5139 36.9849 67.0853 37.189C66.6567 37.3931 66.1822 37.4951 65.6618 37.4951H63.4577V41.0002H60.9475ZM63.4577 35.3063H65.5088C65.8047 35.3063 66.0598 35.1788 66.2741 34.9237C66.4884 34.6686 66.5955 34.2961 66.5955 33.8063C66.5955 33.5512 66.5598 33.3318 66.4884 33.1482C66.4271 32.9645 66.3404 32.8114 66.2281 32.689C66.1159 32.5665 65.9884 32.4798 65.8455 32.4288C65.7026 32.3675 65.5598 32.3369 65.4169 32.3369H63.4577V35.3063Z" fill="white"/>
<path d="M72.7494 30.1329H75.0147L78.979 41.0002H76.4076L75.5657 38.5665H72.1831L71.3565 41.0002H68.7851L72.7494 30.1329ZM75.1525 36.8369L73.882 32.9951L72.581 36.8369H75.1525Z" fill="white"/>
</svg>
