<svg width="102" height="50" viewBox="0 0 102 50" fill="none" xmlns="http://www.w3.org/2000/svg">
<path d="M0.801766 0.220304H11.5478V13.0003H8.59577V2.8123H3.77177V13.0003H0.801766V0.220304Z" fill="#02363C"/>
<path d="M19.6524 13.1083C18.7044 13.1083 17.8404 12.9223 17.0604 12.5503C16.2804 12.1783 15.6144 11.6923 15.0624 11.0923C14.5104 10.4803 14.0784 9.7843 13.7664 9.0043C13.4664 8.22431 13.3164 7.42031 13.3164 6.59231C13.3164 5.75231 13.4724 4.9423 13.7844 4.1623C14.1084 3.3823 14.5524 2.6983 15.1164 2.1103C15.6924 1.5103 16.3704 1.0363 17.1504 0.688305C17.9304 0.328305 18.7824 0.148304 19.7064 0.148304C20.6544 0.148304 21.5184 0.334304 22.2984 0.706305C23.0784 1.0783 23.7444 1.5703 24.2964 2.1823C24.8484 2.7943 25.2744 3.4903 25.5744 4.2703C25.8744 5.0503 26.0244 5.84231 26.0244 6.64631C26.0244 7.48631 25.8624 8.29631 25.5384 9.07631C25.2264 9.85631 24.7884 10.5463 24.2244 11.1463C23.6604 11.7343 22.9884 12.2083 22.2084 12.5683C21.4284 12.9283 20.5764 13.1083 19.6524 13.1083ZM16.3224 6.62831C16.3224 7.12031 16.3944 7.60031 16.5384 8.06831C16.6824 8.52431 16.8924 8.93231 17.1684 9.2923C17.4564 9.6523 17.8104 9.94031 18.2304 10.1563C18.6504 10.3723 19.1304 10.4803 19.6704 10.4803C20.2344 10.4803 20.7264 10.3663 21.1464 10.1383C21.5664 9.91031 21.9144 9.6163 22.1904 9.2563C22.4664 8.88431 22.6704 8.47031 22.8024 8.01431C22.9464 7.54631 23.0184 7.07231 23.0184 6.59231C23.0184 6.10031 22.9464 5.62631 22.8024 5.1703C22.6584 4.7023 22.4424 4.2943 22.1544 3.9463C21.8664 3.5863 21.5124 3.3043 21.0924 3.10031C20.6844 2.88431 20.2104 2.7763 19.6704 2.7763C19.1064 2.7763 18.6144 2.8903 18.1944 3.1183C17.7864 3.3343 17.4384 3.6223 17.1504 3.9823C16.8744 4.34231 16.6644 4.75631 16.5204 5.22431C16.3884 5.68031 16.3224 6.1483 16.3224 6.62831Z" fill="#02363C"/>
<path d="M31.7744 4.6483C31.6184 6.2683 31.4204 7.6243 31.1804 8.7163C30.9524 9.7963 30.6344 10.6663 30.2264 11.3263C29.8184 11.9743 29.2964 12.4363 28.6604 12.7123C28.0244 12.9883 27.2324 13.1263 26.2844 13.1263L26.1944 10.5343C26.6264 10.4863 26.9864 10.3843 27.2744 10.2283C27.5744 10.0603 27.8264 9.74831 28.0304 9.2923C28.2344 8.82431 28.4024 8.1643 28.5344 7.3123C28.6784 6.4603 28.8164 5.3203 28.9484 3.8923L29.2724 0.220304H37.5704V13.0003H34.6184V2.8123H31.9544L31.7744 4.6483Z" fill="#02363C"/>
<path d="M49.106 10.4083V13.0003H40.124V0.220304H48.944V2.8123H43.076V5.2963H48.116V7.6903H43.076V10.4083H49.106Z" fill="#02363C"/>
<path d="M50.0731 1.93031C50.6491 1.3303 51.2971 0.880305 52.0171 0.580304C52.7491 0.268305 53.6131 0.112305 54.6091 0.112305C55.8691 0.112305 56.8711 0.388305 57.6151 0.940305C58.3591 1.4923 58.7311 2.30831 58.7311 3.3883C58.7311 3.9883 58.5811 4.5463 58.2811 5.0623C57.9931 5.5783 57.4951 5.9623 56.7871 6.2143C57.5791 6.4063 58.1791 6.77831 58.5871 7.33031C59.0071 7.87031 59.2171 8.5303 59.2171 9.3103C59.2171 9.91031 59.0971 10.4503 58.8571 10.9303C58.6171 11.3983 58.2811 11.7943 57.8491 12.1183C57.4291 12.4423 56.9251 12.6883 56.3371 12.8563C55.7611 13.0243 55.1371 13.1083 54.4651 13.1083C53.4931 13.1083 52.6411 12.9703 51.9091 12.6943C51.1771 12.4063 50.4811 11.9623 49.8211 11.3623L51.3331 9.18431C51.7411 9.56831 52.1791 9.88031 52.6471 10.1203C53.1271 10.3483 53.6911 10.4623 54.3391 10.4623C54.8791 10.4623 55.3231 10.3303 55.6711 10.0663C56.0311 9.79031 56.2111 9.38231 56.2111 8.84231C56.2111 8.3863 56.0431 8.0023 55.7071 7.6903C55.3831 7.3783 54.8551 7.22231 54.1231 7.22231H52.5751V5.1703H53.9071C54.5911 5.1703 55.1071 5.0503 55.4551 4.81031C55.8031 4.5703 55.9771 4.2283 55.9771 3.7843C55.9771 3.4003 55.8511 3.1063 55.5991 2.9023C55.3471 2.6863 54.9571 2.5783 54.4291 2.5783C53.8531 2.5783 53.3371 2.6803 52.8811 2.8843C52.4371 3.0883 52.0171 3.3823 51.6211 3.7663L50.0731 1.93031Z" fill="#02363C"/>
<path d="M72.0224 0.220304V13.0003H69.0704V7.76231H63.9764V13.0003H61.0244V0.220304H63.9764V5.1703H69.0704V0.220304H72.0224Z" fill="#02363C"/>
<path d="M74.5947 0.220304H77.5647V4.59431H79.8327C80.5167 4.59431 81.1347 4.6903 81.6867 4.8823C82.2507 5.0623 82.7307 5.3323 83.1267 5.6923C83.5227 6.0403 83.8287 6.47231 84.0447 6.98831C84.2607 7.50431 84.3687 8.0863 84.3687 8.7343C84.3687 9.4063 84.2607 10.0063 84.0447 10.5343C83.8407 11.0623 83.5407 11.5123 83.1447 11.8843C82.7607 12.2443 82.2987 12.5203 81.7587 12.7123C81.2187 12.9043 80.6187 13.0003 79.9587 13.0003H74.5947V0.220304ZM85.9707 13.0003V0.220304H88.9227V13.0003H85.9707ZM77.5647 10.4983H79.5987C80.1867 10.4983 80.6247 10.3423 80.9127 10.0303C81.2127 9.7063 81.3627 9.2683 81.3627 8.7163C81.3627 8.21231 81.2127 7.7923 80.9127 7.4563C80.6127 7.1083 80.1747 6.93431 79.5987 6.93431H77.5647V10.4983Z" fill="#02363C"/>
<path d="M100.487 10.4083V13.0003H91.5049V0.220304H100.325V2.8123H94.4569V5.2963H99.4969V7.6903H94.4569V10.4083H100.487Z" fill="#02363C"/>
<path d="M3.75377 23.2963H4.41977L8.14577 18.2203H11.4758L6.88577 24.3943L11.8898 31.0003H8.59577L4.68977 25.9783H3.75377V31.0003H0.801766V18.2203H3.75377V23.2963Z" fill="#02363C"/>
<path d="M16.2804 18.2203H18.9444L23.6064 31.0003H20.5824L19.5924 28.1383H15.6144L14.6424 31.0003H11.6184L16.2804 18.2203ZM19.1064 26.1043L17.6124 21.5863L16.0824 26.1043H19.1064Z" fill="#02363C"/>
<path d="M35.917 18.2203V31.0003H32.965V25.7623H27.871V31.0003H24.919V18.2203H27.871V23.1703H32.965V18.2203H35.917Z" fill="#02363C"/>
<path d="M41.4593 26.4103L47.4713 18.2203H49.6673V31.0003H46.7153V23.0083L40.7753 31.0003H38.4893V18.2203H41.4593V26.4103Z" fill="#02363C"/>
<path d="M55.1698 23.2963H55.8358L59.5618 18.2203H62.8918L58.3018 24.3943L63.3058 31.0003H60.0118L56.1058 25.9783H55.1698V31.0003H52.2178V18.2203H55.1698V23.2963Z" fill="#02363C"/>
<path d="M66.6704 31.1263C66.5384 31.1263 66.3824 31.1143 66.2024 31.0903C66.0224 31.0663 65.8364 31.0363 65.6444 31.0003C65.4644 30.9523 65.2844 30.8923 65.1044 30.8203C64.9244 30.7483 64.7624 30.6583 64.6184 30.5503L65.1404 28.1203C65.2364 28.1803 65.3984 28.2703 65.6264 28.3903C65.8544 28.5103 66.1064 28.5703 66.3824 28.5703C66.6944 28.5703 66.9584 28.4863 67.1744 28.3183C67.3904 28.1503 67.5644 27.8743 67.6964 27.4903L62.9804 18.2203H66.2204L69.0284 24.5563L71.6204 18.2203H74.7344L70.2344 27.9403C69.9704 28.5163 69.7124 29.0083 69.4604 29.4163C69.2204 29.8123 68.9624 30.1363 68.6864 30.3883C68.4104 30.6403 68.1104 30.8263 67.7864 30.9463C67.4624 31.0663 67.0904 31.1263 66.6704 31.1263Z" fill="#02363C"/>
<path d="M78.8311 22.6483C78.6751 24.2683 78.4771 25.6243 78.2371 26.7163C78.0091 27.7963 77.6911 28.6663 77.2831 29.3263C76.8751 29.9743 76.3531 30.4363 75.7171 30.7123C75.0811 30.9883 74.2891 31.1263 73.3411 31.1263L73.2511 28.5343C73.6831 28.4863 74.0431 28.3843 74.3311 28.2283C74.6311 28.0603 74.8831 27.7483 75.0871 27.2923C75.2911 26.8243 75.4591 26.1643 75.5911 25.3123C75.7351 24.4603 75.8731 23.3203 76.0051 21.8923L76.3291 18.2203H84.6271V31.0003H81.6751V20.8123H79.0111L78.8311 22.6483Z" fill="#02363C"/>
<path d="M87.1807 18.2203H90.1507V22.5943H92.4187C93.1027 22.5943 93.7207 22.6903 94.2727 22.8823C94.8367 23.0623 95.3167 23.3323 95.7127 23.6923C96.1087 24.0403 96.4147 24.4723 96.6307 24.9883C96.8467 25.5043 96.9547 26.0863 96.9547 26.7343C96.9547 27.4063 96.8467 28.0063 96.6307 28.5343C96.4267 29.0623 96.1267 29.5123 95.7307 29.8843C95.3467 30.2443 94.8847 30.5203 94.3447 30.7123C93.8047 30.9043 93.2047 31.0003 92.5447 31.0003H87.1807V18.2203ZM98.5567 31.0003V18.2203H101.509V31.0003H98.5567ZM90.1507 28.4983H92.1847C92.7727 28.4983 93.2107 28.3423 93.4987 28.0303C93.7987 27.7063 93.9487 27.2683 93.9487 26.7163C93.9487 26.2123 93.7987 25.7923 93.4987 25.4563C93.1987 25.1083 92.7607 24.9343 92.1847 24.9343H90.1507V28.4983Z" fill="#02363C"/>
<path d="M6.34577 49.1083C5.39777 49.1083 4.53377 48.9223 3.75377 48.5503C2.97377 48.1783 2.30777 47.6923 1.75577 47.0923C1.20377 46.4803 0.771766 45.7843 0.459766 45.0043C0.159766 44.2243 0.00976562 43.4203 0.00976562 42.5923C0.00976562 41.7523 0.165766 40.9423 0.477766 40.1623C0.801766 39.3823 1.24577 38.6983 1.80977 38.1103C2.38577 37.5103 3.06377 37.0363 3.84377 36.6883C4.62377 36.3283 5.47577 36.1483 6.39977 36.1483C7.34777 36.1483 8.21177 36.3343 8.99177 36.7063C9.77177 37.0783 10.4378 37.5703 10.9898 38.1823C11.5418 38.7943 11.9678 39.4903 12.2678 40.2703C12.5678 41.0503 12.7178 41.8423 12.7178 42.6463C12.7178 43.4863 12.5558 44.2963 12.2318 45.0763C11.9198 45.8563 11.4818 46.5463 10.9178 47.1463C10.3538 47.7343 9.68177 48.2083 8.90177 48.5683C8.12177 48.9283 7.26977 49.1083 6.34577 49.1083ZM3.01577 42.6283C3.01577 43.1203 3.08777 43.6003 3.23177 44.0683C3.37577 44.5243 3.58577 44.9323 3.86177 45.2923C4.14977 45.6523 4.50377 45.9403 4.92377 46.1563C5.34377 46.3723 5.82377 46.4803 6.36377 46.4803C6.92777 46.4803 7.41977 46.3663 7.83977 46.1383C8.25977 45.9103 8.60777 45.6163 8.88377 45.2563C9.15977 44.8843 9.36377 44.4703 9.49577 44.0143C9.63977 43.5463 9.71177 43.0723 9.71177 42.5923C9.71177 42.1003 9.63977 41.6263 9.49577 41.1703C9.35177 40.7023 9.13577 40.2943 8.84777 39.9463C8.55977 39.5863 8.20577 39.3043 7.78577 39.1003C7.37777 38.8843 6.90377 38.7763 6.36377 38.7763C5.79977 38.7763 5.30777 38.8903 4.88777 39.1183C4.47977 39.3343 4.13177 39.6223 3.84377 39.9823C3.56777 40.3423 3.35777 40.7563 3.21377 41.2243C3.08177 41.6803 3.01577 42.1483 3.01577 42.6283Z" fill="#02363C"/>
<path d="M23.5639 38.8123H19.6759V49.0003H16.7239V38.8123H12.8179V36.2203H23.5639V38.8123Z" fill="#02363C"/>
<path d="M34.0416 46.4083V49.0003H25.0596V36.2203H33.8796V38.8123H28.0116V41.2963H33.0516V43.6903H28.0116V46.4083H34.0416Z" fill="#02363C"/>
<path d="M40.3877 40.6483C40.2317 42.2683 40.0337 43.6243 39.7937 44.7163C39.5657 45.7963 39.2477 46.6663 38.8397 47.3263C38.4317 47.9743 37.9097 48.4363 37.2737 48.7123C36.6377 48.9883 35.8457 49.1263 34.8977 49.1263L34.8077 46.5343C35.2397 46.4863 35.5997 46.3843 35.8877 46.2283C36.1877 46.0603 36.4397 45.7483 36.6437 45.2923C36.8477 44.8243 37.0157 44.1643 37.1477 43.3123C37.2917 42.4603 37.4297 41.3203 37.5617 39.8923L37.8857 36.2203H46.1837V49.0003H43.2317V38.8123H40.5677L40.3877 40.6483Z" fill="#02363C"/>
<path d="M48.7373 36.2203H51.7073V40.5943H53.9753C54.6593 40.5943 55.2773 40.6903 55.8293 40.8823C56.3933 41.0623 56.8733 41.3323 57.2693 41.6923C57.6653 42.0403 57.9713 42.4723 58.1873 42.9883C58.4033 43.5043 58.5113 44.0863 58.5113 44.7343C58.5113 45.4063 58.4033 46.0063 58.1873 46.5343C57.9833 47.0623 57.6833 47.5123 57.2873 47.8843C56.9033 48.2443 56.4413 48.5203 55.9013 48.7123C55.3613 48.9043 54.7613 49.0003 54.1013 49.0003H48.7373V36.2203ZM51.7073 46.4983H53.7413C54.3293 46.4983 54.7673 46.3423 55.0553 46.0303C55.3553 45.7063 55.5053 45.2683 55.5053 44.7163C55.5053 44.2123 55.3553 43.7923 55.0553 43.4563C54.7553 43.1083 54.3173 42.9343 53.7413 42.9343H51.7073V46.4983Z" fill="#02363C"/>
<path d="M69.1627 46.4083V49.0003H60.1807V36.2203H69.0007V38.8123H63.1327V41.2963H68.1727V43.6903H63.1327V46.4083H69.1627Z" fill="#02363C"/>
<path d="M71.0088 49.0003V36.2203H76.4628C77.0748 36.2203 77.6328 36.3463 78.1368 36.5983C78.6528 36.8503 79.0908 37.1803 79.4508 37.5883C79.8228 37.9963 80.1108 38.4583 80.3148 38.9743C80.5308 39.4903 80.6388 40.0123 80.6388 40.5403C80.6388 41.1043 80.5368 41.6443 80.3328 42.1603C80.1408 42.6763 79.8648 43.1383 79.5048 43.5463C79.1568 43.9543 78.7308 44.2783 78.2268 44.5183C77.7228 44.7583 77.1648 44.8783 76.5528 44.8783H73.9608V49.0003H71.0088ZM73.9608 42.3043H76.3728C76.7208 42.3043 77.0208 42.1543 77.2728 41.8543C77.5248 41.5543 77.6508 41.1163 77.6508 40.5403C77.6508 40.2403 77.6088 39.9823 77.5248 39.7663C77.4528 39.5503 77.3508 39.3703 77.2188 39.2263C77.0868 39.0823 76.9368 38.9803 76.7688 38.9203C76.6008 38.8483 76.4328 38.8123 76.2648 38.8123H73.9608V42.3043Z" fill="#02363C"/>
<path d="M84.8878 36.2203H87.5518L92.2138 49.0003H89.1898L88.1998 46.1383H84.2218L83.2498 49.0003H80.2258L84.8878 36.2203ZM87.7138 44.1043L86.2198 39.5863L84.6898 44.1043H87.7138Z" fill="#02363C"/>
</svg>
