<svg width="23" height="44" viewBox="0 0 23 44" fill="none" xmlns="http://www.w3.org/2000/svg">
<path fill-rule="evenodd" clip-rule="evenodd" d="M14.1052 18.2666L15.4539 17.3167C17.4287 15.9258 18.7075 13.6388 18.7075 11.0534C18.7075 6.82678 15.2811 3.40038 11.0544 3.40038C6.82775 3.40038 3.40136 6.82678 3.40136 11.0534C3.40136 13.6377 4.67906 15.9239 6.65246 17.3149L8.0002 18.2649L9.17315 39.9645H12.9323L14.1052 18.2666ZM16.1548 43.3659H5.95068L4.6928 20.095C1.85422 18.0942 0 14.7903 0 11.0534C0 4.94826 4.94923 -0.000976562 11.0544 -0.000976562C17.1596 -0.000976562 22.1088 4.94826 22.1088 11.0534C22.1088 14.7919 20.2531 18.0969 17.4125 20.0975L16.1548 43.3659Z" fill="white"/>
</svg>
