<svg width="120" height="37" viewBox="0 0 120 37" fill="none" xmlns="http://www.w3.org/2000/svg">
<path d="M35.8786 -0.00390625H69.7254C70.0103 -0.00390625 70.2829 0.00877801 70.5431 0.135621C71.3979 0.566886 71.5713 1.56894 70.9395 2.4061C70.4439 3.053 69.9112 3.67453 69.4033 4.30874C65.9591 8.57066 62.5274 12.8326 59.0956 17.0945C58.8107 17.4496 58.5009 17.7794 58.439 18.2614C58.3647 18.7561 58.4762 19.1874 58.7859 19.5806C62.7256 24.464 66.6529 29.3348 70.5926 34.2182C70.7908 34.4719 71.0262 34.7002 71.1501 35.0173C71.5218 35.9813 70.9395 36.9327 69.9236 36.9961C69.8369 36.9961 69.7626 36.9961 69.6882 36.9961C47.1526 36.9961 24.617 36.9961 2.08135 37.0088C1.33801 37.0088 0.730952 36.7931 0.309725 36.1336C0.0991121 35.8038 0 35.4613 0 35.0808C0 24.0328 0 12.9721 0 1.9241C0 0.871308 0.743341 0.0595151 1.78402 -0.00390625C1.9203 -0.00390625 2.05658 -0.00390625 2.19286 -0.00390625H35.8786ZM43.9067 22.2443C44.0306 22.3838 44.0925 22.4472 44.1545 22.5233C45.7526 24.3118 47.3384 26.1003 48.9242 27.9015C49.1844 28.2059 49.4817 28.3454 49.8534 28.3454C51.3029 28.3454 52.7524 28.3454 54.2143 28.3454C54.6232 28.3454 54.9825 28.2186 55.1807 27.8C55.3665 27.3814 55.1559 27.0516 54.8957 26.7599C53.3967 25.0475 51.91 23.3351 50.4109 21.6228C50.0516 21.2042 50.0516 21.2042 50.5224 20.9251C54.3382 18.642 54.5736 13.7205 52.3684 10.9553C50.8569 9.06534 48.8251 8.19013 46.5084 8.11402C44.0058 8.02523 41.5156 8.07597 39.013 8.07597C38.344 8.07597 38.0343 8.41844 38.0219 9.09071C38.0095 15.1665 37.9971 21.2422 37.9723 27.318C37.9723 27.9776 38.2944 28.3581 38.9387 28.3581C40.2767 28.3835 41.6147 28.3835 42.9527 28.3581C43.5846 28.3454 43.9067 27.9776 43.9067 27.3307C43.9067 25.7705 43.9067 24.223 43.9067 22.6756V22.2443ZM10.382 18.2107H10.3572V27.318C10.3572 27.9522 10.6669 28.3327 11.2988 28.3454C12.6864 28.3708 14.0615 28.3708 15.4491 28.3454C16.0686 28.3327 16.4154 27.9015 16.4031 27.2799C16.3783 25.6564 16.3907 24.0328 16.3907 22.4219C16.3907 22.1809 16.4526 22.1048 16.688 22.1174C17.4313 22.1301 18.1747 22.1428 18.9304 22.1048C20.987 22.016 22.8577 21.4198 24.4064 19.9611C26.9957 17.5131 27.1815 13.3273 24.7904 10.6636C23.2418 8.92581 21.2348 8.16476 18.9924 8.10134C16.4774 8.02523 13.95 8.07597 11.4227 8.07597C10.6917 8.07597 10.3696 8.41844 10.3696 9.1795C10.382 12.173 10.382 15.1918 10.382 18.2107ZM28.5071 18.1853V27.3307C28.5071 27.9776 28.8292 28.3454 29.4611 28.3454C30.7372 28.3581 32.0256 28.3581 33.3141 28.3454C33.9459 28.3454 34.268 27.9649 34.268 27.3307V9.11608C34.268 8.46918 33.9459 8.10134 33.3141 8.08865C32.0256 8.07597 30.7495 8.07597 29.4611 8.08865C28.8292 8.10134 28.5071 8.4565 28.5071 9.11608V18.1853Z" fill="white"/>
<path d="M119.998 18.6953C119.948 20.7755 119.353 22.6274 117.817 24.0861C115.314 26.4707 110.446 26.3439 108.463 22.361C107.026 19.4817 107.162 16.577 109.083 13.9387C111.338 10.8437 116.045 10.8564 118.399 13.8753C119.502 15.2959 119.96 16.9195 119.998 18.6953ZM117.173 18.7333C117.173 17.6552 116.962 16.5516 116.306 15.5623C115.166 13.8626 112.44 13.8372 111.288 15.5242C110.148 17.1985 110.074 19.8622 111.152 21.5873C112.341 23.528 115.215 23.528 116.417 21.6C116.937 20.7501 117.123 19.8115 117.173 18.7333Z" fill="white"/>
<path d="M89.8963 20.5842C88.8928 22.0555 87.9264 23.4888 86.9477 24.9222C86.5884 25.4295 86.1176 25.6325 85.523 25.5183C84.9655 25.4169 84.6186 25.0744 84.4823 24.529C84.3584 24.0089 84.5442 23.5396 84.8416 23.121C85.9442 21.5735 87.022 20.0134 88.137 18.4659C88.2981 18.2376 88.2857 18.098 88.137 17.8824C87.2203 16.6013 86.3282 15.3075 85.4362 14.0137C85.0893 13.5317 85.0026 13.0243 85.2876 12.4789C85.7955 11.5403 87.022 11.5276 87.6663 12.4662C88.3477 13.4683 89.0167 14.483 89.6981 15.4851C89.76 15.5739 89.8219 15.6753 89.9087 15.7895C89.9954 15.6753 90.0697 15.5866 90.1317 15.4978C90.8007 14.4957 91.4697 13.4936 92.1387 12.5043C92.436 12.073 92.8077 11.7686 93.3528 11.7686C94.4307 11.7686 95.0501 12.8721 94.5174 13.8234C94.3687 14.0898 94.1829 14.3308 94.0094 14.5845C93.2289 15.7007 92.4608 16.8169 91.6679 17.9205C91.5192 18.1234 91.544 18.2502 91.6803 18.4405C92.7953 20.0007 93.8979 21.5608 95.0006 23.1337C95.2979 23.5523 95.4837 24.0216 95.3474 24.5416C95.2112 25.0871 94.8519 25.4169 94.3068 25.5183C93.7245 25.6198 93.2537 25.4295 92.9068 24.9349C91.99 23.603 91.0732 22.2585 90.1688 20.9139C90.0697 20.8125 89.9954 20.711 89.8963 20.5842Z" fill="white"/>
<path d="M97.1393 18.6783C97.1393 16.9025 97.1393 15.114 97.1393 13.3382C97.1393 12.501 97.573 11.9176 98.3906 11.9049C99.964 11.8795 101.562 11.7019 103.123 12.0698C105.006 12.5137 106.295 14.1881 106.357 16.1668C106.406 17.4986 106.059 18.691 105.105 19.6423C104.35 20.4033 103.433 20.7966 102.392 20.898C101.649 20.9741 100.893 20.9488 100.15 20.9361C99.8897 20.9361 99.8401 21.0122 99.8401 21.2659C99.8525 22.2172 99.8401 23.1558 99.8401 24.1072C99.8401 24.957 99.2826 25.5532 98.4774 25.5532C97.6845 25.5532 97.127 24.9443 97.127 24.0945C97.1393 22.2806 97.1393 20.4795 97.1393 18.6783ZM99.8525 16.3824C99.8525 16.9786 99.8525 17.5874 99.8525 18.1963C99.8525 18.3104 99.8278 18.4373 100.001 18.4373C100.645 18.4119 101.29 18.488 101.934 18.3992C102.999 18.2597 103.594 17.4352 103.532 16.2302C103.483 15.1774 102.764 14.4417 101.736 14.4037C101.178 14.391 100.621 14.4037 100.063 14.391C99.8525 14.391 99.8278 14.4798 99.8278 14.6574C99.8525 15.2155 99.8525 15.799 99.8525 16.3824Z" fill="white"/>
<path d="M75.9316 18.7272C75.9316 16.9767 75.9316 15.2136 75.9316 13.4505C75.9316 12.4358 76.4644 11.865 77.4555 11.865C78.8802 11.8523 80.2926 11.8523 81.7049 11.865C82.25 11.865 82.7208 12.0299 82.9686 12.5753C83.1916 13.07 83.142 13.552 82.8323 13.9959C82.5474 14.4018 82.1385 14.4906 81.6801 14.4906C80.7757 14.4906 79.8713 14.5033 78.967 14.4906C78.7192 14.4906 78.6201 14.5287 78.6324 14.8204C78.6572 15.5307 78.6448 16.2411 78.6324 16.9387C78.6324 17.1924 78.682 17.2685 78.9422 17.2685C79.8094 17.2431 80.6642 17.2431 81.5191 17.2685C82.4359 17.2812 82.9562 17.8139 82.919 18.6764C82.8943 19.2853 82.4483 19.8053 81.866 19.8561C80.9244 19.9449 79.9705 19.8941 79.0289 19.8814C78.7068 19.8814 78.6448 19.9702 78.6448 20.2746C78.6696 20.9977 78.6696 21.7207 78.6448 22.431C78.6324 22.7227 78.7316 22.7861 79.0041 22.7861C80.0324 22.7734 81.0607 22.7734 82.089 22.7861C82.7208 22.7988 83.1916 23.2555 83.2659 23.877C83.3527 24.5873 82.9934 25.1961 82.3615 25.3484C82.2005 25.3864 82.027 25.3991 81.866 25.3991C80.4041 25.3991 78.9422 25.3991 77.4803 25.3991C76.4768 25.3991 75.9564 24.8664 75.9564 23.8389C75.9316 22.1519 75.9316 20.4395 75.9316 18.7272Z" fill="white"/>
<path d="M43.9102 15.0775C43.9102 14.5447 43.9102 14.012 43.9102 13.4666C43.9102 13.2763 43.9597 13.2129 44.1579 13.2129C44.7526 13.2256 45.3473 13.2129 45.942 13.2256C46.9702 13.2509 47.664 13.9993 47.6764 15.0521C47.6888 16.1176 47.0446 16.8406 46.0163 16.9421C45.3844 17.0055 44.765 16.9547 44.1456 16.9674C43.9597 16.9674 43.9225 16.8913 43.9225 16.7137C43.9102 16.1683 43.9102 15.6229 43.9102 15.0775Z" fill="white"/>
<path d="M16.3984 15.0793C16.3984 14.5466 16.3984 14.0011 16.3984 13.4684C16.3984 13.2654 16.4604 13.2147 16.6462 13.2147C17.2657 13.2274 17.8975 13.1893 18.517 13.2274C19.2603 13.2781 19.855 13.6079 20.1151 14.369C20.3629 15.13 20.2886 15.8657 19.7063 16.4619C19.3099 16.8678 18.7895 16.9566 18.2568 16.9692C17.7241 16.9819 17.1789 16.9692 16.6462 16.9692C16.4604 16.9692 16.3984 16.9185 16.3984 16.7156C16.3984 16.1701 16.3984 15.6247 16.3984 15.0793Z" fill="white"/>
</svg>
