<svg width="85" height="38" viewBox="0 0 85 38" fill="none" xmlns="http://www.w3.org/2000/svg">
<path d="M29.8748 9.16113H28.6699V11.7828H29.8748C30.6193 11.7828 31.1024 11.269 31.1024 10.4691C31.1024 9.67496 30.6193 9.16113 29.8748 9.16113Z" fill="white"/>
<path d="M39.7606 12.2355C39.7606 12.2297 39.7663 12.2297 39.7663 12.2239L39.7947 12.183C39.8061 12.1655 39.8175 12.148 39.8232 12.148L47.7514 2.28595C47.7741 2.26259 47.9674 2.05239 48.0867 1.81883C48.189 1.60863 48.2345 1.32252 48.2402 1.24661C48.2402 0.592645 47.74 0.043782 47.0865 -0.00292969H1.51177C0.676317 0.00290928 0 0.697746 0 1.55607V23.8784C0 24.7309 0.676317 25.4258 1.51177 25.4258L47.0524 25.4141H47.0694C47.6946 25.3732 48.2004 24.8127 48.2004 24.1295C48.1947 24.1003 48.1549 23.8084 48.0526 23.5982C47.939 23.3646 47.7344 23.1544 47.7344 23.1544L39.8572 13.3333C39.8345 13.3099 39.8061 13.2807 39.7606 13.2223L39.7549 13.2107C39.6583 13.0705 39.6072 12.9012 39.6072 12.726C39.6072 12.5508 39.6583 12.3874 39.7493 12.2472L39.7606 12.2355ZM14.6005 14.0865C13.6912 14.9331 12.4465 15.4003 11.0996 15.4003H9.73556V19.1489C9.73556 19.4875 9.47412 19.7561 9.14449 19.7561H6.50174C6.34261 19.7561 6.19484 19.6861 6.08117 19.5751C5.9675 19.4642 5.90499 19.3065 5.90499 19.143L5.92772 6.16302C5.92772 5.8302 6.19484 5.55577 6.51879 5.55577H10.9916C12.4067 5.55577 13.6912 6.03456 14.6175 6.91041C15.5667 7.80377 16.0895 9.07666 16.0895 10.4897C16.0952 11.9144 15.5667 13.1931 14.6005 14.0865ZM21.9832 19.1489C21.9832 19.4875 21.716 19.7561 21.3921 19.7561H18.7493C18.4197 19.7561 18.1583 19.4817 18.1583 19.1489V6.08127C18.1583 5.74845 18.4197 5.47986 18.738 5.47402L20.0622 5.45067H20.0792L21.4035 5.47402C21.7274 5.47986 21.9888 5.75429 21.9888 6.08127V19.1489H21.9832ZM35.9301 19.4C35.8334 19.616 35.6232 19.7503 35.3958 19.7503H32.4348C32.2586 19.7503 32.0938 19.6744 31.9801 19.5343L28.6611 15.4762V19.1547C28.6611 19.4934 28.3996 19.762 28.07 19.762H25.4273C25.2681 19.762 25.1204 19.6919 25.0067 19.581C24.893 19.47 24.8305 19.3124 24.8305 19.1489L24.8532 6.16886C24.8532 5.83604 25.1204 5.56161 25.4443 5.56161H29.9114C31.3266 5.56161 32.6167 6.0404 33.5431 6.91625C34.4979 7.80961 35.0207 9.0825 35.0207 10.4955C35.0207 11.5874 34.7138 12.5917 34.1284 13.4033C33.7306 13.9522 33.2191 14.4076 32.6167 14.7405L35.8391 18.746C35.9983 18.9328 36.0324 19.1839 35.9301 19.4Z" fill="white"/>
<path d="M10.9431 9.16113H9.73828V11.7828H10.9431C11.6877 11.7828 12.1651 11.269 12.1651 10.4691C12.1651 9.67496 11.6877 9.16113 10.9431 9.16113Z" fill="white"/>
<path d="M54.6806 9.83494C54.8113 9.83494 54.9363 9.81158 55.05 9.75903C55.1636 9.70648 55.2659 9.63642 55.3455 9.54883C55.4251 9.46125 55.4933 9.35615 55.5444 9.23353C55.5956 9.11675 55.6183 8.98829 55.6183 8.85399C55.6183 8.7197 55.5956 8.59124 55.5444 8.47446C55.4933 8.35768 55.4308 8.25258 55.3455 8.15916C55.2603 8.07157 55.1636 8.0015 55.05 7.94895C54.9363 7.8964 54.8113 7.87305 54.6806 7.87305H49.7417C49.611 7.87305 49.486 7.8964 49.3666 7.94895C49.2473 8.0015 49.145 8.07157 49.0597 8.15916C48.9745 8.25258 48.9063 8.35184 48.8551 8.47446C48.8097 8.59124 48.7812 8.7197 48.7812 8.85399V16.5556C48.7812 16.8242 48.8665 17.0402 49.0313 17.2212C49.2018 17.3964 49.4064 17.4957 49.6565 17.5249H54.6692C54.7999 17.5307 54.9249 17.5073 55.0386 17.4548C55.1523 17.4022 55.2546 17.338 55.3341 17.2504C55.4137 17.1628 55.4819 17.0577 55.5331 16.941C55.5842 16.8242 55.6069 16.6957 55.6069 16.5614C55.6069 16.4271 55.5842 16.2987 55.5331 16.1761C55.4819 16.0534 55.4194 15.9483 55.3341 15.8608C55.2489 15.7673 55.1523 15.6973 55.0386 15.6447C54.9249 15.5922 54.7999 15.563 54.6692 15.563H50.6852V13.5368H53.8565C53.9872 13.5368 54.1122 13.5135 54.2259 13.4668C54.3396 13.4201 54.4419 13.35 54.5328 13.2624C54.6237 13.1748 54.6919 13.0697 54.7374 12.9588C54.7885 12.842 54.8113 12.7194 54.8113 12.5793C54.8113 12.445 54.7885 12.3165 54.7374 12.1939C54.6919 12.0713 54.618 11.9662 54.5328 11.8727C54.4475 11.7852 54.3452 11.7092 54.2259 11.6567C54.1122 11.6041 53.9872 11.5808 53.8565 11.5866H50.6852V9.84078H54.6806V9.83494Z" fill="white"/>
<path d="M64.7021 9.18453C64.7419 9.05607 64.7589 8.93345 64.7476 8.80499C64.7362 8.67654 64.7078 8.55976 64.651 8.43714C64.5998 8.32036 64.5202 8.21526 64.4236 8.12184C64.327 8.03425 64.219 7.96418 64.111 7.92331C63.9974 7.88244 63.8894 7.87076 63.7757 7.8766C63.6621 7.88828 63.5541 7.91747 63.4461 7.97586C63.3381 8.03425 63.2415 8.11016 63.1619 8.20942L60.468 11.2982L57.7855 8.20942C57.7002 8.11016 57.5979 8.02841 57.49 7.97586C57.382 7.92331 57.2683 7.88828 57.1546 7.8766C57.041 7.86492 56.9273 7.88244 56.8136 7.92331C56.7 7.96418 56.5977 8.02841 56.4954 8.12184C56.3988 8.21526 56.3192 8.31452 56.268 8.43714C56.2112 8.55392 56.1828 8.67654 56.1714 8.80499C56.1601 8.93345 56.1771 9.05607 56.2169 9.18453C56.2567 9.30715 56.3192 9.42392 56.4044 9.52319L59.2063 12.7463L56.4726 15.8993C56.3817 16.0044 56.3135 16.1212 56.268 16.2438C56.2226 16.3665 56.1998 16.4891 56.1998 16.6117C56.1998 16.7343 56.2226 16.8511 56.2737 16.9679C56.3249 17.0847 56.3988 17.1839 56.4954 17.2773C56.592 17.3649 56.7 17.435 56.8193 17.4759C56.9387 17.5167 57.058 17.5343 57.1774 17.5284C57.2967 17.5226 57.4161 17.4875 57.5297 17.435C57.6434 17.3824 57.7457 17.3007 57.8366 17.2014L60.4567 14.1885L63.088 17.2014C63.179 17.3007 63.2756 17.3824 63.3893 17.435C63.5029 17.4875 63.6166 17.5226 63.7416 17.5284C63.861 17.5343 63.986 17.5167 64.0997 17.4759C64.219 17.435 64.327 17.3649 64.4293 17.2773C64.5259 17.1839 64.5998 17.0847 64.651 16.9737C64.7021 16.8628 64.7248 16.7402 64.7248 16.6175C64.7248 16.4949 64.7021 16.3665 64.6566 16.2438C64.6112 16.1212 64.543 16.0044 64.452 15.8993L61.707 12.7463L64.5089 9.52319C64.5998 9.42392 64.6623 9.31298 64.7021 9.18453Z" fill="white"/>
<path d="M71.8775 8.95134C71.5536 8.62436 71.1785 8.36161 70.7466 8.16892C70.3146 7.97624 69.8486 7.88281 69.3541 7.88281H66.6716C66.5409 7.88281 66.4159 7.90617 66.3022 7.95872C66.1885 8.01127 66.0862 8.08134 65.9953 8.16892C65.91 8.26235 65.8361 8.36161 65.7907 8.48423C65.7395 8.60101 65.7168 8.72946 65.7168 8.86376V16.5654C65.7168 16.6997 65.7395 16.8281 65.7907 16.9449C65.8361 17.0617 65.91 17.1668 65.9953 17.2485C66.0862 17.3361 66.1885 17.4003 66.3022 17.4529C66.4159 17.5054 66.5409 17.5288 66.6716 17.5288C66.8023 17.5288 66.9273 17.5054 67.041 17.4529C67.1547 17.4003 67.257 17.3361 67.3479 17.2485C67.4332 17.1609 67.5071 17.0617 67.5525 16.9449C67.6037 16.8281 67.6264 16.6997 67.6264 16.5654V15.1698H69.3598C69.8543 15.1698 70.3146 15.0764 70.7522 14.8837C71.1842 14.691 71.565 14.4341 71.8832 14.1072C72.2072 13.7802 72.4629 13.3948 72.6505 12.951C72.838 12.5073 72.9346 12.0343 72.9346 11.5322C72.9346 11.0242 72.838 10.5512 72.6505 10.1016C72.4572 9.6637 72.2015 9.27833 71.8775 8.95134ZM70.8886 12.1686C70.8034 12.373 70.684 12.5481 70.5306 12.7058C70.3828 12.8635 70.2066 12.9861 70.0077 13.0737C69.8088 13.1612 69.5985 13.208 69.3826 13.208H67.6207V9.83887H69.3826C69.5985 9.83887 69.8031 9.88558 70.002 9.979C70.201 10.0724 70.3715 10.195 70.5192 10.3527C70.667 10.5103 70.7863 10.6855 70.8773 10.8899C70.9682 11.0942 71.0137 11.3103 71.0137 11.5322C71.0194 11.7599 70.9739 11.9701 70.8886 12.1686Z" fill="white"/>
<path d="M83.0462 11.4122C82.9325 10.9976 82.7677 10.6064 82.5631 10.2386C82.3528 9.87657 82.1084 9.54374 81.8129 9.24596C81.5174 8.94817 81.1991 8.69125 80.8467 8.48105C80.4944 8.27085 80.1136 8.10736 79.7044 7.98474C79.3009 7.86796 78.8746 7.80957 78.437 7.80957C77.9994 7.80957 77.5731 7.86796 77.1696 7.98474C76.7661 8.10152 76.3853 8.26501 76.0329 8.48105C75.6806 8.69125 75.3623 8.94817 75.0725 9.24596C74.7826 9.54374 74.5382 9.87657 74.3336 10.2386C74.129 10.6006 73.9699 10.9918 73.8562 11.4122C73.7426 11.8268 73.6914 12.2647 73.6914 12.7143C73.6914 13.3916 73.8164 14.0281 74.0608 14.6236C74.3052 15.2192 74.6462 15.733 75.0725 16.1768C75.4987 16.6206 76.0045 16.9709 76.5842 17.2278C77.1639 17.4847 77.7834 17.6132 78.4427 17.6132C79.1019 17.6132 79.7214 17.4847 80.3011 17.2278C80.8808 16.9709 81.3866 16.6206 81.8186 16.1768C82.2505 15.733 82.5915 15.2134 82.8473 14.6236C83.0973 14.0281 83.2224 13.3975 83.2224 12.7143C83.2167 12.2647 83.1598 11.8326 83.0462 11.4122ZM81.0854 13.8763C80.932 14.2383 80.7331 14.5477 80.4716 14.8105C80.2102 15.0732 79.909 15.2834 79.5566 15.4294C79.2099 15.5812 78.8348 15.6571 78.437 15.6571C78.0392 15.6571 77.6697 15.5812 77.3231 15.4294C76.9764 15.2776 76.6752 15.0732 76.4194 14.8105C76.1637 14.5477 75.9591 14.2383 75.8113 13.8763C75.6635 13.5201 75.5896 13.1289 75.5896 12.7201C75.5896 12.3114 75.6635 11.9319 75.8113 11.5757C75.9591 11.2195 76.1637 10.9101 76.4194 10.6415C76.6752 10.3729 76.9764 10.1627 77.3231 10.0109C77.6697 9.85321 78.0392 9.7773 78.437 9.7773C78.8348 9.7773 79.2042 9.85321 79.5566 10.0109C79.9033 10.1685 80.2102 10.3787 80.4716 10.6415C80.7331 10.9101 80.932 11.2195 81.0854 11.5757C81.2332 11.9319 81.3071 12.3114 81.3071 12.7201C81.3128 13.1289 81.2332 13.5142 81.0854 13.8763Z" fill="white"/>
<path d="M60.3959 33.5071C60.3334 33.4487 60.2595 33.3962 60.1743 33.367C60.0947 33.332 60.0095 33.3145 59.9242 33.3145H58.4238V34.6924H59.9242C60.0095 34.6924 60.0947 34.6691 60.1743 34.6282C60.2539 34.5873 60.3277 34.529 60.3959 34.4589C60.4641 34.3888 60.5153 34.3129 60.5494 34.2253C60.5892 34.1377 60.6062 34.056 60.6062 33.9684C60.6062 33.875 60.5892 33.7932 60.5494 33.7115C60.5153 33.6356 60.4641 33.5655 60.3959 33.5071Z" fill="white"/>
<path d="M27.9452 31.116C27.7576 30.9233 27.536 30.7715 27.2859 30.6547C27.0302 30.5437 26.7631 30.4854 26.4732 30.4854C26.189 30.4854 25.9162 30.5437 25.6662 30.6547C25.4161 30.7656 25.1945 30.9233 25.0126 31.116C24.825 31.3086 24.6773 31.5364 24.5693 31.7933C24.4613 32.0502 24.4102 32.3305 24.4102 32.6224C24.4102 32.9202 24.4613 33.2005 24.5693 33.4632C24.6773 33.726 24.825 33.9479 25.0126 34.1405C25.2001 34.3332 25.4161 34.4792 25.6662 34.5901C25.9162 34.7011 26.189 34.7536 26.4732 34.7536C26.7574 34.7536 27.0302 34.7011 27.2859 34.5901C27.536 34.4792 27.7576 34.3332 27.9452 34.1405C28.1327 33.9479 28.2805 33.726 28.3885 33.4632C28.4965 33.2005 28.5476 32.926 28.5476 32.6224C28.5476 32.3305 28.4965 32.0502 28.3885 31.7933C28.2805 31.5305 28.1327 31.3086 27.9452 31.116Z" fill="white"/>
<path d="M83.7553 27.2324H1.25033C0.562651 27.2324 0 27.8105 0 28.517V36.7207C0 37.4273 0.562651 38.0053 1.25033 38.0053H83.7553C84.443 38.0053 85.0057 37.4273 85.0057 36.7207V28.517C85 27.8105 84.443 27.2324 83.7553 27.2324ZM29.6613 34.0056C29.4795 34.4377 29.2294 34.8114 28.9168 35.1325C28.6042 35.4537 28.2405 35.7106 27.8143 35.8916C27.3937 36.0785 26.9447 36.1719 26.4673 36.1719C25.9899 36.1719 25.5409 36.0785 25.1204 35.8916C24.6998 35.7048 24.3361 35.4537 24.0235 35.1325C23.7166 34.8114 23.4722 34.4319 23.2903 34.0056C23.1085 33.5735 23.0232 33.1181 23.0232 32.6218C23.0232 32.2948 23.063 31.9795 23.1426 31.6759C23.2221 31.3722 23.3415 31.092 23.4892 30.8234C23.637 30.5606 23.8189 30.3212 24.0235 30.1052C24.2338 29.8892 24.4668 29.7023 24.7225 29.5505C24.9783 29.3987 25.2511 29.2761 25.5466 29.1943C25.8421 29.1067 26.149 29.0659 26.4673 29.0659C26.7856 29.0659 27.0925 29.1067 27.388 29.1943C27.6835 29.2819 27.9563 29.3987 28.2121 29.5505C28.4678 29.7023 28.7009 29.8892 28.9111 30.1052C29.1214 30.3212 29.3033 30.5606 29.4567 30.8234C29.6045 31.0861 29.7239 31.3722 29.8091 31.6759C29.8944 31.9795 29.9341 32.2948 29.9341 32.6218C29.9341 33.1123 29.8432 33.5735 29.6613 34.0056ZM37.2827 30.1052C37.2486 30.1928 37.1974 30.2687 37.1349 30.3271C37.0724 30.3913 36.9985 30.4439 36.9133 30.4789C36.828 30.5139 36.7428 30.5314 36.6462 30.5314H35.2481V35.4011C35.2481 35.5004 35.231 35.5938 35.1912 35.6756C35.1514 35.7632 35.106 35.8332 35.0435 35.8974C34.9809 35.9617 34.9071 36.0084 34.8218 36.0434C34.7366 36.0785 34.6456 36.096 34.549 36.096C34.4524 36.096 34.3615 36.0785 34.2819 36.0434C34.1966 36.0084 34.1284 35.9558 34.0659 35.8974C34.0034 35.8332 33.9523 35.7632 33.9182 35.6756C33.8841 35.588 33.8613 35.5004 33.8613 35.4011V30.5314H32.4632C32.3666 30.5314 32.2757 30.5139 32.1961 30.473C32.1109 30.438 32.0427 30.3855 31.9801 30.3212C31.9176 30.257 31.8722 30.1811 31.8324 30.0935C31.7983 30.0059 31.7812 29.9125 31.7812 29.8132C31.7812 29.714 31.7983 29.6206 31.8324 29.5388C31.8665 29.4512 31.9176 29.3812 31.9801 29.3169C32.0427 29.2527 32.1165 29.206 32.1961 29.1651C32.2814 29.1301 32.3666 29.1126 32.4632 29.1126H36.6405C36.7371 29.1126 36.828 29.1301 36.9076 29.171C36.9928 29.2118 37.0667 29.2585 37.1292 29.3228C37.1974 29.387 37.2429 29.4629 37.277 29.5505C37.3111 29.6381 37.3282 29.7315 37.3282 29.8308C37.3338 29.93 37.3225 30.0234 37.2827 30.1052ZM43.5514 31.8043C43.648 31.8043 43.7333 31.816 43.8185 31.8569C43.9038 31.8978 43.9777 31.9503 44.0402 32.0145C44.1027 32.0788 44.1539 32.1605 44.188 32.2481C44.2221 32.3357 44.2391 32.4291 44.2391 32.5284C44.2391 32.6276 44.2221 32.7152 44.188 32.8028C44.1539 32.8845 44.1027 32.9604 44.0402 33.0247C43.9777 33.0889 43.9038 33.1356 43.8185 33.1707C43.7333 33.2057 43.648 33.2232 43.5514 33.2232H41.2553V34.6888H44.1425C44.2391 34.6888 44.33 34.7063 44.4096 34.7472C44.4949 34.7822 44.5631 34.8348 44.6256 34.9048C44.6881 34.9691 44.7336 35.045 44.7677 35.1325C44.8018 35.2201 44.8188 35.3136 44.8188 35.4128C44.8188 35.5121 44.8018 35.6055 44.7677 35.6872C44.7336 35.7748 44.6881 35.8507 44.6256 35.9091C44.5631 35.9734 44.4949 36.0201 44.4096 36.0609C44.3244 36.096 44.2391 36.1135 44.1425 36.1077H40.5108C40.329 36.0901 40.1812 36.0142 40.0562 35.8858C39.9368 35.7573 39.8743 35.5997 39.8743 35.407V29.8249C39.8743 29.7257 39.8913 29.6322 39.9254 29.5505C39.9595 29.4629 40.0107 29.387 40.0732 29.3228C40.1357 29.2585 40.2096 29.206 40.2949 29.171C40.3801 29.1359 40.4711 29.1184 40.562 29.1184H44.1425C44.2391 29.1184 44.33 29.1359 44.4096 29.171C44.4949 29.206 44.5631 29.2585 44.6256 29.3228C44.6881 29.387 44.7336 29.4629 44.7677 29.5505C44.8018 29.6381 44.8188 29.7257 44.8188 29.8249C44.8188 29.9242 44.8018 30.0176 44.7677 30.0994C44.7336 30.1869 44.6881 30.2628 44.6256 30.3271C44.5631 30.3913 44.4949 30.4439 44.4096 30.4789C44.3244 30.5139 44.2391 30.5314 44.1425 30.5314H41.2553V31.7985H43.5514V31.8043ZM53.8439 35.3836C53.8439 35.4829 53.8269 35.5821 53.7871 35.6697C53.753 35.7573 53.7019 35.8332 53.6337 35.9033C53.5655 35.9734 53.4916 36.0201 53.4063 36.0609C53.3211 36.096 53.2245 36.1193 53.1278 36.1193C53.0312 36.1193 52.9403 36.1018 52.8607 36.0609C52.7812 36.0201 52.7073 35.9675 52.6504 35.9033C52.5936 35.8391 52.5425 35.7632 52.514 35.6697C52.4799 35.5821 52.4629 35.4829 52.4629 35.3836V30.5373H50.0475V33.9356C50.0475 34.2801 50.002 34.5837 49.9054 34.8523C49.8088 35.1209 49.6724 35.3486 49.4962 35.5354C49.32 35.7223 49.0984 35.8683 48.8426 35.9675C48.5812 36.0668 48.2913 36.1193 47.9617 36.1252H47.9503H47.9219C47.8253 36.1252 47.7344 36.1076 47.6491 36.0668C47.5639 36.0259 47.49 35.9734 47.4275 35.9091C47.3649 35.8449 47.3138 35.769 47.274 35.6814C47.2342 35.5938 47.2172 35.5004 47.2172 35.4011C47.2172 35.3019 47.2342 35.2084 47.274 35.1209C47.3081 35.0333 47.3593 34.9632 47.4275 34.899C47.49 34.8348 47.5639 34.788 47.6491 34.753C47.7344 34.718 47.8253 34.7005 47.9219 34.7005H47.9503C48.0867 34.7005 48.2004 34.6829 48.2856 34.6537C48.3766 34.6246 48.4505 34.5778 48.5073 34.5195C48.5641 34.4552 48.6039 34.3793 48.6266 34.2801C48.6494 34.1866 48.6664 34.064 48.6664 33.9239V29.8366C48.6664 29.7373 48.6835 29.6439 48.7176 29.5563C48.7517 29.4687 48.8028 29.387 48.8597 29.3228C48.9222 29.2585 48.9904 29.206 49.0756 29.1651C49.1609 29.1242 49.2461 29.1067 49.3427 29.1009H49.3655H49.3768H49.4053H53.0994H53.1278C53.196 29.1009 53.2642 29.1126 53.3268 29.1359C53.3324 29.1359 53.3381 29.1359 53.3438 29.1359C53.3495 29.1359 53.3495 29.1359 53.3495 29.1359C53.4916 29.1885 53.6109 29.2761 53.7019 29.3987C53.7928 29.5213 53.8383 29.6673 53.8383 29.8308V35.3836H53.8439ZM61.8177 34.8464C61.7097 35.0975 61.5676 35.3194 61.3801 35.5062C61.1925 35.6931 60.9765 35.8391 60.7265 35.95C60.4821 36.0551 60.215 36.1135 59.9365 36.1135H57.7541C57.6575 36.1135 57.5608 36.096 57.4756 36.0609C57.3903 36.0259 57.3165 35.9734 57.2483 35.9091C57.1857 35.8449 57.1346 35.769 57.0948 35.6814C57.0607 35.5938 57.038 35.5004 57.038 35.3953V29.86C57.038 29.7607 57.055 29.6614 57.0948 29.5738C57.1346 29.4863 57.1857 29.4045 57.2483 29.3403C57.3108 29.2761 57.3847 29.2235 57.4756 29.1826C57.5608 29.1476 57.6575 29.1242 57.7541 29.1242C57.953 29.1242 58.1121 29.1885 58.2372 29.3169C58.3622 29.4454 58.4247 29.6089 58.4247 29.8132V31.8978H59.9365C60.215 31.8978 60.4821 31.9561 60.7265 32.0671C60.9765 32.1839 61.1925 32.3357 61.3801 32.5342C61.5676 32.7327 61.7097 32.9604 61.8177 33.2174C61.9256 33.4743 61.9768 33.7487 61.9768 34.0348C61.9768 34.3209 61.9256 34.5954 61.8177 34.8464Z" fill="white"/>
</svg>
