<svg width="40" height="15" viewBox="0 0 40 15" fill="none" xmlns="http://www.w3.org/2000/svg">
<path d="M11.9501 0.681717H14.8242V4.09982H14.0347V1.37497H12.7445V4.09982H11.9501V0.681717Z" fill="#02363C"/>
<path d="M16.9918 4.12871C16.7383 4.12871 16.5072 4.07896 16.2986 3.97946C16.09 3.87997 15.9119 3.74999 15.7642 3.58951C15.6166 3.42583 15.501 3.23968 15.4176 3.03106C15.3374 2.82244 15.2972 2.60741 15.2972 2.38595C15.2972 2.16129 15.339 1.94465 15.4224 1.73603C15.5091 1.52742 15.6278 1.34448 15.7787 1.18721C15.9327 1.02674 16.1141 0.899962 16.3227 0.806887C16.5313 0.710603 16.7592 0.66246 17.0063 0.66246C17.2598 0.66246 17.4909 0.712207 17.6995 0.811702C17.9082 0.911196 18.0863 1.04278 18.2339 1.20647C18.3816 1.37015 18.4955 1.5563 18.5757 1.76492C18.656 1.97354 18.6961 2.18536 18.6961 2.4004C18.6961 2.62506 18.6528 2.8417 18.5661 3.05032C18.4827 3.25893 18.3655 3.44348 18.2147 3.60395C18.0638 3.76122 17.8841 3.88799 17.6755 3.98428C17.4669 4.08056 17.239 4.12871 16.9918 4.12871ZM16.1012 2.39558C16.1012 2.52717 16.1205 2.65555 16.159 2.78072C16.1975 2.90268 16.2537 3.0118 16.3275 3.10809C16.4045 3.20437 16.4992 3.2814 16.6115 3.33917C16.7239 3.39694 16.8522 3.42583 16.9967 3.42583C17.1475 3.42583 17.2791 3.39534 17.3914 3.33436C17.5038 3.27338 17.5968 3.19475 17.6707 3.09846C17.7445 2.99897 17.799 2.88824 17.8343 2.76628C17.8729 2.64111 17.8921 2.51433 17.8921 2.38595C17.8921 2.25437 17.8729 2.12759 17.8343 2.00563C17.7958 1.88046 17.7381 1.77134 17.661 1.67826C17.584 1.58198 17.4893 1.50656 17.377 1.45199C17.2679 1.39422 17.1411 1.36534 16.9967 1.36534C16.8458 1.36534 16.7142 1.39583 16.6019 1.45681C16.4928 1.51458 16.3997 1.59161 16.3227 1.68789C16.2489 1.78418 16.1927 1.8949 16.1542 2.02007C16.1189 2.14203 16.1012 2.2672 16.1012 2.39558Z" fill="#02363C"/>
<path d="M20.234 1.86602C20.1922 2.2993 20.1393 2.66197 20.0751 2.95403C20.0141 3.24289 19.9291 3.47558 19.8199 3.6521C19.7108 3.82541 19.5712 3.94897 19.4011 4.02279C19.231 4.09661 19.0192 4.13352 18.7656 4.13352L18.7416 3.44027C18.8571 3.42743 18.9534 3.40015 19.0304 3.35843C19.1106 3.3135 19.178 3.23005 19.2326 3.10809C19.2872 2.98292 19.3321 2.8064 19.3674 2.57852C19.4059 2.35065 19.4428 2.04575 19.4781 1.66382L19.5648 0.681717H21.7841V4.09982H20.9946V1.37497H20.2821L20.234 1.86602Z" fill="#02363C"/>
<path d="M24.8694 3.40657V4.09982H22.4671V0.681717H24.8261V1.37497H23.2567V2.03933H24.6046V2.67962H23.2567V3.40657H24.8694Z" fill="#02363C"/>
<path d="M25.1281 1.13907C25.2821 0.978595 25.4555 0.858239 25.648 0.778002C25.8438 0.694555 26.0749 0.652832 26.3413 0.652832C26.6783 0.652832 26.9463 0.72665 27.1452 0.874287C27.3442 1.02192 27.4437 1.24017 27.4437 1.52902C27.4437 1.6895 27.4036 1.83874 27.3234 1.97675C27.2463 2.11475 27.1131 2.21746 26.9238 2.28486C27.1356 2.33621 27.2961 2.4357 27.4052 2.58334C27.5175 2.72777 27.5737 2.90429 27.5737 3.1129C27.5737 3.27338 27.5416 3.4178 27.4774 3.54618C27.4132 3.67135 27.3234 3.77727 27.2078 3.86392C27.0955 3.95058 26.9607 4.01637 26.8034 4.06131C26.6494 4.10624 26.4825 4.12871 26.3028 4.12871C26.0428 4.12871 25.8149 4.0918 25.6191 4.01798C25.4234 3.94095 25.2372 3.8222 25.0607 3.66173L25.4651 3.0792C25.5742 3.18191 25.6913 3.26535 25.8165 3.32954C25.9449 3.39052 26.0957 3.42101 26.2691 3.42101C26.4135 3.42101 26.5322 3.38571 26.6253 3.3151C26.7216 3.24128 26.7697 3.13216 26.7697 2.98773C26.7697 2.86577 26.7248 2.76307 26.6349 2.67962C26.5483 2.59618 26.4071 2.55445 26.2113 2.55445H25.7973V2.00563H26.1535C26.3365 2.00563 26.4745 1.97354 26.5675 1.90935C26.6606 1.84516 26.7071 1.75369 26.7071 1.63493C26.7071 1.53223 26.6735 1.4536 26.6061 1.39904C26.5387 1.34127 26.4343 1.31238 26.2931 1.31238C26.1391 1.31238 26.0011 1.33966 25.8791 1.39422C25.7604 1.44878 25.648 1.52742 25.5421 1.63012L25.1281 1.13907Z" fill="#02363C"/>
<path d="M30.9986 0.681717V4.09982H30.209V2.69888H28.8466V4.09982H28.0571V0.681717H28.8466V2.00563H30.209V0.681717H30.9986Z" fill="#02363C"/>
<path d="M31.6866 0.681717H32.4809V1.85158H33.0875C33.2704 1.85158 33.4357 1.87725 33.5834 1.9286C33.7342 1.97675 33.8626 2.04896 33.9685 2.14524C34.0744 2.23832 34.1563 2.35386 34.214 2.49187C34.2718 2.62988 34.3007 2.78554 34.3007 2.95885C34.3007 3.13858 34.2718 3.29905 34.214 3.44027C34.1595 3.58149 34.0792 3.70184 33.9733 3.80134C33.8706 3.89762 33.7471 3.97144 33.6026 4.02279C33.4582 4.07414 33.2977 4.09982 33.1212 4.09982H31.6866V0.681717ZM34.7292 4.09982V0.681717H35.5187V4.09982H34.7292ZM32.4809 3.43064H33.0249C33.1822 3.43064 33.2993 3.38892 33.3764 3.30547C33.4566 3.21882 33.4967 3.10167 33.4967 2.95403C33.4967 2.81924 33.4566 2.7069 33.3764 2.61704C33.2961 2.52396 33.179 2.47743 33.0249 2.47743H32.4809V3.43064Z" fill="#02363C"/>
<path d="M38.6116 3.40657V4.09982H36.2093V0.681717H38.5683V1.37497H36.9988V2.03933H38.3468V2.67962H36.9988V3.40657H38.6116Z" fill="#02363C"/>
<path d="M12.7396 6.85356H12.9178L13.9143 5.49595H14.8049L13.5773 7.14723L14.9157 8.91405H14.0347L12.99 7.57088H12.7396V8.91405H11.9501V5.49595H12.7396V6.85356Z" fill="#02363C"/>
<path d="M16.09 5.49595H16.8025L18.0494 8.91405H17.2406L16.9758 8.14859H15.9118L15.6519 8.91405H14.8431L16.09 5.49595ZM16.8458 7.60458L16.4462 6.39621L16.037 7.60458H16.8458Z" fill="#02363C"/>
<path d="M21.3419 5.49595V8.91405H20.5524V7.51311H19.19V8.91405H18.4004V5.49595H19.19V6.81986H20.5524V5.49595H21.3419Z" fill="#02363C"/>
<path d="M22.8242 7.68642L24.4322 5.49595H25.0195V8.91405H24.23V6.77653L22.6413 8.91405H22.0299V5.49595H22.8242V7.68642Z" fill="#02363C"/>
<path d="M26.4912 6.85356H26.6694L27.6659 5.49595H28.5565L27.3289 7.14723L28.6673 8.91405H27.7863L26.7416 7.57088H26.4912V8.91405H25.7017V5.49595H26.4912V6.85356Z" fill="#02363C"/>
<path d="M29.5671 8.94775C29.5318 8.94775 29.4901 8.94454 29.442 8.93812C29.3938 8.9317 29.3441 8.92368 29.2927 8.91405C29.2446 8.90121 29.1964 8.88516 29.1483 8.86591C29.1002 8.84665 29.0568 8.82258 29.0183 8.79369L29.1579 8.14377C29.1836 8.15982 29.2269 8.18389 29.2879 8.21599C29.3489 8.24808 29.4163 8.26413 29.4901 8.26413C29.5736 8.26413 29.6442 8.24166 29.7019 8.19673C29.7597 8.1518 29.8062 8.07798 29.8416 7.97528L28.5802 5.49595H29.4468L30.1978 7.19056L30.8911 5.49595H31.7239L30.5204 8.09563C30.4497 8.24969 30.3807 8.38128 30.3133 8.4904C30.2492 8.59631 30.1802 8.68297 30.1063 8.75037C30.0325 8.81777 29.9523 8.86751 29.8656 8.89961C29.779 8.9317 29.6795 8.94775 29.5671 8.94775Z" fill="#02363C"/>
<path d="M32.8196 6.68025C32.7779 7.11353 32.7249 7.4762 32.6607 7.76826C32.5998 8.05712 32.5147 8.2898 32.4056 8.46633C32.2965 8.63964 32.1568 8.7632 31.9867 8.83702C31.8166 8.91084 31.6048 8.94775 31.3513 8.94775L31.3272 8.2545C31.4427 8.24166 31.539 8.21438 31.616 8.17266C31.6963 8.12773 31.7637 8.04428 31.8182 7.92232C31.8728 7.79715 31.9177 7.62063 31.953 7.39275C31.9916 7.16488 32.0285 6.85998 32.0638 6.47805L32.1504 5.49595H34.3698V8.91405H33.5803V6.1892H32.8677L32.8196 6.68025Z" fill="#02363C"/>
<path d="M35.0528 5.49595H35.8471V6.6658H36.4537C36.6366 6.6658 36.8019 6.69148 36.9496 6.74283C37.1004 6.79097 37.2288 6.86319 37.3347 6.95947C37.4406 7.05255 37.5225 7.16809 37.5802 7.3061C37.638 7.4441 37.6669 7.59976 37.6669 7.77308C37.6669 7.95281 37.638 8.11328 37.5802 8.2545C37.5257 8.39572 37.4454 8.51607 37.3395 8.61557C37.2368 8.71185 37.1133 8.78567 36.9688 8.83702C36.8244 8.88837 36.6639 8.91405 36.4874 8.91405H35.0528V5.49595ZM38.0954 8.91405V5.49595H38.8849V8.91405H38.0954ZM35.8471 8.24487H36.3911C36.5484 8.24487 36.6655 8.20315 36.7426 8.1197C36.8228 8.03305 36.8629 7.9159 36.8629 7.76826C36.8629 7.63346 36.8228 7.52113 36.7426 7.43127C36.6623 7.33819 36.5452 7.29165 36.3911 7.29165H35.8471V8.24487Z" fill="#02363C"/>
<path d="M13.4329 13.7572C13.1793 13.7572 12.9483 13.7074 12.7396 13.6079C12.531 13.5084 12.3529 13.3784 12.2053 13.218C12.0576 13.0543 11.9421 12.8681 11.8586 12.6595C11.7784 12.4509 11.7383 12.2359 11.7383 12.0144C11.7383 11.7897 11.78 11.5731 11.8635 11.3645C11.9501 11.1559 12.0689 10.9729 12.2197 10.8157C12.3738 10.6552 12.5551 10.5284 12.7637 10.4353C12.9723 10.3391 13.2002 10.2909 13.4473 10.2909C13.7009 10.2909 13.932 10.3407 14.1406 10.4402C14.3492 10.5397 14.5273 10.6712 14.675 10.8349C14.8226 10.9986 14.9365 11.1848 15.0168 11.3934C15.097 11.602 15.1371 11.8138 15.1371 12.0289C15.1371 12.2535 15.0938 12.4702 15.0071 12.6788C14.9237 12.8874 14.8066 13.0719 14.6557 13.2324C14.5049 13.3897 14.3251 13.5165 14.1165 13.6127C13.9079 13.709 13.68 13.7572 13.4329 13.7572ZM12.5423 12.024C12.5423 12.1556 12.5615 12.284 12.6 12.4092C12.6385 12.5311 12.6947 12.6403 12.7685 12.7365C12.8456 12.8328 12.9402 12.9099 13.0526 12.9676C13.1649 13.0254 13.2933 13.0543 13.4377 13.0543C13.5886 13.0543 13.7201 13.0238 13.8325 12.9628C13.9448 12.9018 14.0379 12.8232 14.1117 12.7269C14.1855 12.6274 14.2401 12.5167 14.2754 12.3947C14.3139 12.2696 14.3332 12.1428 14.3332 12.0144C14.3332 11.8828 14.3139 11.756 14.2754 11.6341C14.2369 11.5089 14.1791 11.3998 14.1021 11.3067C14.025 11.2104 13.9304 11.135 13.818 11.0805C13.7089 11.0227 13.5821 10.9938 13.4377 10.9938C13.2869 10.9938 13.1553 11.0243 13.0429 11.0853C12.9338 11.143 12.8407 11.2201 12.7637 11.3163C12.6899 11.4126 12.6337 11.5234 12.5952 11.6485C12.5599 11.7705 12.5423 11.8957 12.5423 12.024Z" fill="#02363C"/>
<path d="M18.038 11.0034H16.9981V13.7283H16.2086V11.0034H15.1639V10.3102H18.038V11.0034Z" fill="#02363C"/>
<path d="M20.8403 13.035V13.7283H18.438V10.3102H20.797V11.0034H19.2276V11.6678H20.5756V12.3081H19.2276V13.035H20.8403Z" fill="#02363C"/>
<path d="M22.5377 11.4945C22.4959 11.9278 22.443 12.2904 22.3788 12.5825C22.3178 12.8713 22.2327 13.104 22.1236 13.2806C22.0145 13.4539 21.8749 13.5774 21.7048 13.6513C21.5347 13.7251 21.3229 13.762 21.0693 13.762L21.0452 13.0687C21.1608 13.0559 21.2571 13.0286 21.3341 12.9869C21.4143 12.942 21.4817 12.8585 21.5363 12.7365C21.5909 12.6114 21.6358 12.4349 21.6711 12.207C21.7096 11.9791 21.7465 11.6742 21.7818 11.2923L21.8685 10.3102H24.0878V13.7283H23.2983V11.0034H22.5858L22.5377 11.4945Z" fill="#02363C"/>
<path d="M24.7708 10.3102H25.5652V11.48H26.1718C26.3547 11.48 26.52 11.5057 26.6676 11.5571C26.8185 11.6052 26.9468 11.6774 27.0528 11.7737C27.1587 11.8668 27.2405 11.9823 27.2983 12.1203C27.3561 12.2583 27.3849 12.414 27.3849 12.5873C27.3849 12.767 27.3561 12.9275 27.2983 13.0687C27.2437 13.2099 27.1635 13.3303 27.0576 13.4298C26.9549 13.5261 26.8313 13.5999 26.6869 13.6513C26.5425 13.7026 26.382 13.7283 26.2055 13.7283H24.7708V10.3102ZM25.5652 13.0591H26.1092C26.2664 13.0591 26.3836 13.0174 26.4606 12.9339C26.5408 12.8473 26.581 12.7301 26.581 12.5825C26.581 12.4477 26.5408 12.3354 26.4606 12.2455C26.3804 12.1524 26.2632 12.1059 26.1092 12.1059H25.5652V13.0591Z" fill="#02363C"/>
<path d="M30.2337 13.035V13.7283H27.8314V10.3102H30.1904V11.0034H28.621V11.6678H29.9689V12.3081H28.621V13.035H30.2337Z" fill="#02363C"/>
<path d="M30.7275 13.7283V10.3102H32.1862C32.3499 10.3102 32.4991 10.3439 32.6339 10.4113C32.7719 10.4787 32.8891 10.5669 32.9854 10.6761C33.0849 10.7852 33.1619 10.9087 33.2164 11.0468C33.2742 11.1848 33.3031 11.3244 33.3031 11.4656C33.3031 11.6164 33.2758 11.7609 33.2213 11.8989C33.1699 12.0369 33.0961 12.1604 32.9998 12.2696C32.9067 12.3787 32.7928 12.4653 32.658 12.5295C32.5232 12.5937 32.3739 12.6258 32.2103 12.6258H31.517V13.7283H30.7275ZM31.517 11.9374H32.1621C32.2552 11.9374 32.3354 11.8973 32.4028 11.817C32.4702 11.7368 32.5039 11.6196 32.5039 11.4656C32.5039 11.3854 32.4927 11.3163 32.4702 11.2586C32.451 11.2008 32.4237 11.1527 32.3884 11.1142C32.3531 11.0756 32.313 11.0484 32.268 11.0323C32.2231 11.0131 32.1782 11.0034 32.1332 11.0034H31.517V11.9374Z" fill="#02363C"/>
<path d="M34.4395 10.3102H35.152L36.3989 13.7283H35.5901L35.3253 12.9628H34.2614L34.0014 13.7283H33.1926L34.4395 10.3102ZM35.1954 12.4188L34.7958 11.2104L34.3866 12.4188H35.1954Z" fill="#02363C"/>
<path fill-rule="evenodd" clip-rule="evenodd" d="M4.67142 5.83332L5.09549 5.53453C5.7164 5.09703 6.11843 4.37783 6.11843 3.56484C6.11843 2.23542 5.04073 1.15772 3.71132 1.15772C2.38191 1.15772 1.3042 2.23542 1.3042 3.56484C1.3042 4.37783 1.70624 5.09703 2.32715 5.53453L2.75122 5.83332L3.12014 12.6584H4.3025L4.67142 5.83332ZM5.31606 13.7282H2.10658L1.71095 6.40907C0.81782 5.77977 0.234375 4.74044 0.234375 3.56484C0.234375 1.64457 1.79106 0.0878906 3.71132 0.0878906C5.63158 0.0878906 7.18826 1.64457 7.18826 3.56484C7.18826 4.74044 6.60482 5.77977 5.71169 6.40907L5.31606 13.7282Z" fill="#02363C"/>
</svg>
