<svg width="81" height="30" viewBox="0 0 81 30" fill="none" xmlns="http://www.w3.org/2000/svg">
<path d="M24.7144 1.46066H30.5653V8.41894H28.958V2.87191H26.3315V8.41894H24.7144V1.46066Z" fill="#02363C"/>
<path d="M34.978 8.47774C34.4618 8.47774 33.9914 8.37647 33.5667 8.17393C33.142 7.97139 32.7794 7.70678 32.4789 7.3801C32.1783 7.04688 31.9431 6.66793 31.7732 6.24325C31.6099 5.81857 31.5282 5.38082 31.5282 4.93C31.5282 4.47265 31.6132 4.03163 31.783 3.60694C31.9594 3.18226 32.2012 2.80985 32.5083 2.4897C32.8219 2.16302 33.191 1.90494 33.6157 1.71547C34.0404 1.51946 34.5043 1.42146 35.0074 1.42146C35.5235 1.42146 35.9939 1.52273 36.4186 1.72527C36.8433 1.92781 37.2059 2.19569 37.5065 2.5289C37.807 2.86211 38.0389 3.24106 38.2023 3.66575C38.3656 4.09043 38.4473 4.52165 38.4473 4.9594C38.4473 5.41675 38.3591 5.85777 38.1827 6.28245C38.0128 6.70714 37.7743 7.08282 37.4673 7.4095C37.1602 7.72964 36.7943 7.98772 36.3696 8.18373C35.9449 8.37974 35.481 8.47774 34.978 8.47774ZM33.1649 4.9496C33.1649 5.21748 33.2041 5.47882 33.2825 5.73363C33.3609 5.98191 33.4752 6.20405 33.6255 6.40006C33.7823 6.59607 33.9751 6.75287 34.2037 6.87048C34.4324 6.98808 34.6937 7.04688 34.9878 7.04688C35.2948 7.04688 35.5627 6.98481 35.7914 6.86068C36.0201 6.73654 36.2095 6.57646 36.3598 6.38046C36.5101 6.17791 36.6212 5.95251 36.693 5.70423C36.7714 5.44942 36.8106 5.19134 36.8106 4.93C36.8106 4.66212 36.7714 4.40404 36.693 4.15577C36.6146 3.90096 36.497 3.67881 36.3402 3.48934C36.1834 3.29333 35.9907 3.13979 35.762 3.02872C35.5399 2.91112 35.2818 2.85231 34.9878 2.85231C34.6807 2.85231 34.4128 2.91438 34.1841 3.03852C33.962 3.15613 33.7725 3.31293 33.6157 3.50894C33.4654 3.70495 33.3511 3.93036 33.2727 4.18517C33.2008 4.43344 33.1649 4.68825 33.1649 4.9496Z" fill="#02363C"/>
<path d="M41.578 3.87156C41.4931 4.75359 41.3853 5.49189 41.2546 6.08644C41.1304 6.67447 40.9573 7.14815 40.7352 7.5075C40.513 7.86032 40.2288 8.11186 39.8825 8.26213C39.5362 8.4124 39.105 8.48754 38.5889 8.48754L38.5399 7.07628C38.7751 7.05015 38.9711 6.99461 39.1279 6.90968C39.2912 6.81821 39.4284 6.64833 39.5395 6.40006C39.6506 6.14525 39.7421 5.7859 39.8139 5.32201C39.8923 4.85813 39.9675 4.23744 40.0393 3.45994L40.2157 1.46066H44.7337V8.41894H43.1265V2.87191H41.676L41.578 3.87156Z" fill="#02363C"/>
<path d="M51.0145 7.00768V8.41894H46.1241V1.46066H50.9263V2.87191H47.7313V4.22437H50.4754V5.52782H47.7313V7.00768H51.0145Z" fill="#02363C"/>
<path d="M51.541 2.3917C51.8546 2.06502 52.2074 1.82001 52.5995 1.65667C52.998 1.48679 53.4684 1.40186 54.0107 1.40186C54.6967 1.40186 55.2423 1.55213 55.6474 1.85267C56.0525 2.15322 56.255 2.5975 56.255 3.18553C56.255 3.51221 56.1733 3.81602 56.01 4.09696C55.8532 4.37791 55.582 4.58698 55.1966 4.72419C55.6278 4.82873 55.9545 5.03127 56.1766 5.33181C56.4053 5.62583 56.5196 5.98517 56.5196 6.40986C56.5196 6.73654 56.4543 7.03055 56.3236 7.29189C56.1929 7.5467 56.01 7.76231 55.7748 7.93872C55.5461 8.11513 55.2717 8.24906 54.9515 8.34054C54.6379 8.43201 54.2982 8.47774 53.9323 8.47774C53.4031 8.47774 52.9392 8.4026 52.5407 8.25233C52.1421 8.09553 51.7632 7.85378 51.4038 7.5271L52.227 6.34125C52.4492 6.55033 52.6877 6.7202 52.9425 6.85088C53.2038 6.97501 53.5109 7.03708 53.8637 7.03708C54.1577 7.03708 54.3995 6.96521 54.5889 6.82147C54.7849 6.6712 54.8829 6.44906 54.8829 6.15505C54.8829 5.90677 54.7915 5.6977 54.6085 5.52782C54.4321 5.35795 54.1446 5.27301 53.7461 5.27301H52.9033V4.15577H53.6285C54.0009 4.15577 54.2819 4.09043 54.4713 3.95976C54.6608 3.82909 54.7555 3.64288 54.7555 3.40114C54.7555 3.19206 54.6869 3.03199 54.5497 2.92092C54.4125 2.80331 54.2002 2.74451 53.9127 2.74451C53.5991 2.74451 53.3181 2.80004 53.0699 2.91112C52.8281 3.02219 52.5995 3.18226 52.3838 3.39134L51.541 2.3917Z" fill="#02363C"/>
<path d="M63.4917 1.46066V8.41894H61.8844V5.56702H59.1109V8.41894H57.5036V1.46066H59.1109V4.15577H61.8844V1.46066H63.4917Z" fill="#02363C"/>
<path d="M64.8922 1.46066H66.5093V3.84215H67.7441C68.1165 3.84215 68.453 3.89442 68.7536 3.99896C69.0606 4.09696 69.322 4.24397 69.5376 4.43998C69.7532 4.62945 69.9198 4.86466 70.0374 5.14561C70.155 5.42655 70.2138 5.74343 70.2138 6.09624C70.2138 6.46213 70.155 6.78881 70.0374 7.07628C69.9263 7.36376 69.763 7.60877 69.5474 7.81131C69.3383 8.00732 69.0868 8.15759 68.7928 8.26213C68.4988 8.36667 68.1721 8.41894 67.8127 8.41894H64.8922V1.46066ZM71.0861 8.41894V1.46066H72.6933V8.41894H71.0861ZM66.5093 7.05668H67.6167C67.9369 7.05668 68.1753 6.97175 68.3321 6.80187C68.4955 6.62547 68.5772 6.38699 68.5772 6.08644C68.5772 5.81203 68.4955 5.58336 68.3321 5.40042C68.1688 5.21094 67.9303 5.11621 67.6167 5.11621H66.5093V7.05668Z" fill="#02363C"/>
<path d="M78.9896 7.00768V8.41894H74.0992V1.46066H78.9014V2.87191H75.7065V4.22437H78.4506V5.52782H75.7065V7.00768H78.9896Z" fill="#02363C"/>
<path d="M26.3217 14.0248H26.6843L28.713 11.2611H30.5261L28.027 14.6226L30.7515 18.2193H28.958L26.8313 15.485H26.3217V18.2193H24.7144V11.2611H26.3217V14.0248Z" fill="#02363C"/>
<path d="M33.142 11.2611H34.5925L37.1308 18.2193H35.4843L34.9453 16.6611H32.7794L32.2502 18.2193H30.6037L33.142 11.2611ZM34.6807 15.5536L33.8672 13.0937L33.0342 15.5536H34.6807Z" fill="#02363C"/>
<path d="M43.8335 11.2611V18.2193H42.2262V15.3674H39.4527V18.2193H37.8454V11.2611H39.4527V13.9562H42.2262V11.2611H43.8335Z" fill="#02363C"/>
<path d="M46.8511 15.7202L50.1244 11.2611H51.32V18.2193H49.7128V13.868L46.4786 18.2193H45.234V11.2611H46.8511V15.7202Z" fill="#02363C"/>
<path d="M54.316 14.0248H54.6786L56.7073 11.2611H58.5203L56.0212 14.6226L58.7458 18.2193H56.9523L54.8256 15.485H54.316V18.2193H52.7087V11.2611H54.316V14.0248Z" fill="#02363C"/>
<path d="M60.5777 18.2879C60.5058 18.2879 60.4209 18.2814 60.3229 18.2683C60.2248 18.2553 60.1236 18.2389 60.019 18.2193C59.921 18.1932 59.823 18.1605 59.725 18.1213C59.627 18.0821 59.5388 18.0331 59.4604 17.9743L59.7446 16.6513C59.7969 16.6839 59.8851 16.7329 60.0092 16.7983C60.1334 16.8636 60.2706 16.8963 60.4209 16.8963C60.5907 16.8963 60.7345 16.8505 60.8521 16.7591C60.9697 16.6676 61.0644 16.5173 61.1363 16.3083L58.5686 11.2611H60.3327L61.8615 14.7108L63.2728 11.2611H64.9682L62.5181 16.5533C62.3744 16.8669 62.2339 17.1348 62.0967 17.3569C61.9661 17.5725 61.8256 17.7489 61.6753 17.8861C61.525 18.0233 61.3617 18.1246 61.1853 18.1899C61.0089 18.2553 60.8063 18.2879 60.5777 18.2879Z" fill="#02363C"/>
<path d="M67.1987 13.6719C67.1138 14.554 67.006 15.2923 66.8753 15.8868C66.7512 16.4749 66.5781 16.9485 66.3559 17.3079C66.1338 17.6607 65.8496 17.9123 65.5033 18.0625C65.157 18.2128 64.7258 18.2879 64.2096 18.2879L64.1606 16.8767C64.3958 16.8505 64.5918 16.795 64.7486 16.7101C64.912 16.6186 65.0492 16.4487 65.1603 16.2005C65.2713 15.9456 65.3628 15.5863 65.4347 15.1224C65.5131 14.6585 65.5882 14.0378 65.6601 13.2603L65.8365 11.2611H70.3545V18.2193H68.7472V12.6723H67.2968L67.1987 13.6719Z" fill="#02363C"/>
<path d="M71.7448 11.2611H73.3619V13.6425H74.5967C74.9692 13.6425 75.3056 13.6948 75.6062 13.7994C75.9133 13.8974 76.1746 14.0444 76.3902 14.2404C76.6058 14.4298 76.7724 14.6651 76.89 14.946C77.0076 15.2269 77.0664 15.5438 77.0664 15.8966C77.0664 16.2625 77.0076 16.5892 76.89 16.8767C76.779 17.1642 76.6156 17.4092 76.4 17.6117C76.1909 17.8077 75.9394 17.958 75.6454 18.0625C75.3514 18.1671 75.0247 18.2193 74.6653 18.2193H71.7448V11.2611ZM77.9387 18.2193V11.2611H79.5459V18.2193H77.9387ZM73.3619 16.8571H74.4693C74.7895 16.8571 75.028 16.7721 75.1848 16.6023C75.3481 16.4259 75.4298 16.1874 75.4298 15.8868C75.4298 15.6124 75.3481 15.3838 75.1848 15.2008C75.0214 15.0113 74.783 14.9166 74.4693 14.9166H73.3619V16.8571Z" fill="#02363C"/>
<path d="M27.7329 28.0785C27.2168 28.0785 26.7464 27.9773 26.3217 27.7747C25.897 27.5722 25.5344 27.3076 25.2338 26.9809C24.9333 26.6477 24.6981 26.2687 24.5282 25.844C24.3649 25.4194 24.2832 24.9816 24.2832 24.5308C24.2832 24.0734 24.3681 23.6324 24.538 23.2077C24.7144 22.783 24.9562 22.4106 25.2632 22.0905C25.5769 21.7638 25.946 21.5057 26.3707 21.3163C26.7954 21.1202 27.2593 21.0222 27.7623 21.0222C28.2785 21.0222 28.7489 21.1235 29.1736 21.3261C29.5983 21.5286 29.9609 21.7965 30.2614 22.1297C30.562 22.4629 30.7939 22.8419 30.9573 23.2665C31.1206 23.6912 31.2023 24.1224 31.2023 24.5602C31.2023 25.0175 31.1141 25.4586 30.9377 25.8832C30.7678 26.3079 30.5293 26.6836 30.2222 27.0103C29.9152 27.3304 29.5493 27.5885 29.1246 27.7845C28.6999 27.9805 28.236 28.0785 27.7329 28.0785ZM25.9199 24.5504C25.9199 24.8183 25.9591 25.0796 26.0375 25.3344C26.1159 25.5827 26.2302 25.8048 26.3805 26.0008C26.5373 26.1969 26.73 26.3537 26.9587 26.4713C27.1874 26.5889 27.4487 26.6477 27.7427 26.6477C28.0498 26.6477 28.3177 26.5856 28.5464 26.4615C28.7751 26.3373 28.9645 26.1773 29.1148 25.9812C29.2651 25.7787 29.3761 25.5533 29.448 25.305C29.5264 25.0502 29.5656 24.7921 29.5656 24.5308C29.5656 24.2629 29.5264 24.0048 29.448 23.7566C29.3696 23.5017 29.252 23.2796 29.0952 23.0901C28.9384 22.8941 28.7456 22.7406 28.517 22.6295C28.2948 22.5119 28.0368 22.4531 27.7427 22.4531C27.4357 22.4531 27.1678 22.5152 26.9391 22.6393C26.717 22.7569 26.5275 22.9137 26.3707 23.1097C26.2204 23.3057 26.1061 23.5311 26.0277 23.786C25.9558 24.0342 25.9199 24.289 25.9199 24.5504Z" fill="#02363C"/>
<path d="M37.1076 22.4727H34.9907V28.0197H33.3835V22.4727H31.2568V21.0614H37.1076V22.4727Z" fill="#02363C"/>
<path d="M42.8124 26.6085V28.0197H37.922V21.0614H42.7242V22.4727H39.5292V23.8252H42.2734V25.1286H39.5292V26.6085H42.8124Z" fill="#02363C"/>
<path d="M46.2676 23.4723C46.1827 24.3544 46.0749 25.0927 45.9442 25.6872C45.8201 26.2753 45.6469 26.7489 45.4248 27.1083C45.2027 27.4611 44.9184 27.7127 44.5722 27.8629C44.2259 28.0132 43.7947 28.0883 43.2785 28.0883L43.2295 26.6771C43.4647 26.6509 43.6607 26.5954 43.8175 26.5105C43.9809 26.419 44.1181 26.2491 44.2292 26.0008C44.3402 25.746 44.4317 25.3867 44.5036 24.9228C44.582 24.4589 44.6571 23.8382 44.729 23.0607L44.9054 21.0614H49.4234V28.0197H47.8161V22.4727H46.3656L46.2676 23.4723Z" fill="#02363C"/>
<path d="M50.8137 21.0614H52.4308V23.4429H53.6656C54.038 23.4429 54.3745 23.4952 54.6751 23.5998C54.9821 23.6978 55.2435 23.8448 55.4591 24.0408C55.6747 24.2302 55.8413 24.4655 55.9589 24.7464C56.0765 25.0273 56.1353 25.3442 56.1353 25.697C56.1353 26.0629 56.0765 26.3896 55.9589 26.6771C55.8479 26.9646 55.6845 27.2096 55.4689 27.4121C55.2598 27.6081 55.0083 27.7584 54.7143 27.8629C54.4203 27.9675 54.0936 28.0197 53.7342 28.0197H50.8137V21.0614ZM52.4308 26.6575H53.5382C53.8584 26.6575 54.0968 26.5725 54.2537 26.4027C54.417 26.2263 54.4987 25.9878 54.4987 25.6872C54.4987 25.4128 54.417 25.1841 54.2537 25.0012C54.0903 24.8117 53.8518 24.717 53.5382 24.717H52.4308V26.6575Z" fill="#02363C"/>
<path d="M61.9346 26.6085V28.0197H57.0442V21.0614H61.8464V22.4727H58.6515V23.8252H61.3956V25.1286H58.6515V26.6085H61.9346Z" fill="#02363C"/>
<path d="M62.9398 28.0197V21.0614H65.9093C66.2425 21.0614 66.5463 21.1301 66.8207 21.2673C67.1017 21.4045 67.3402 21.5841 67.5362 21.8063C67.7387 22.0284 67.8955 22.28 68.0066 22.5609C68.1242 22.8419 68.183 23.1261 68.183 23.4135C68.183 23.7206 68.1275 24.0146 68.0164 24.2956C67.9119 24.5765 67.7616 24.8281 67.5656 25.0502C67.3761 25.2724 67.1442 25.4488 66.8697 25.5794C66.5953 25.7101 66.2915 25.7754 65.9583 25.7754H64.5471V28.0197H62.9398ZM64.5471 24.374H65.8603C66.0498 24.374 66.2131 24.2923 66.3503 24.129C66.4875 23.9656 66.5561 23.7272 66.5561 23.4135C66.5561 23.2502 66.5333 23.1097 66.4875 22.9921C66.4483 22.8745 66.3928 22.7765 66.3209 22.6981C66.2491 22.6197 66.1674 22.5642 66.0759 22.5315C65.9844 22.4923 65.893 22.4727 65.8015 22.4727H64.5471V24.374Z" fill="#02363C"/>
<path d="M70.4964 21.0614H71.9469L74.4852 28.0197H72.8387L72.2997 26.4615H70.1338L69.6046 28.0197H67.9581L70.4964 21.0614ZM72.0351 25.354L71.2217 22.8941L70.3886 25.354H72.0351Z" fill="#02363C"/>
<path fill-rule="evenodd" clip-rule="evenodd" d="M9.89975 11.9485L10.763 11.3402C12.027 10.4496 12.8454 8.98554 12.8454 7.33051C12.8454 4.6242 10.6516 2.43031 7.94525 2.43031C5.23895 2.43031 3.04505 4.6242 3.04505 7.33051C3.04505 8.98554 3.86349 10.4496 5.12748 11.3402L5.99075 11.9485L6.74177 25.8424H9.14873L9.89975 11.9485ZM11.212 28.0202H4.67845L3.87306 13.1206C2.05492 11.8395 0.867188 9.7237 0.867188 7.33051C0.867188 3.4214 4.03614 0.252441 7.94525 0.252441C11.8544 0.252441 15.0233 3.4214 15.0233 7.33051C15.0233 9.7237 13.8356 11.8395 12.0174 13.1206L11.212 28.0202Z" fill="#02363C"/>
</svg>
