<svg width="61" height="23" viewBox="0 0 61 23" fill="none" xmlns="http://www.w3.org/2000/svg">
<path d="M18.6775 1.36445H23.0205V6.52949H21.8275V2.41201H19.8778V6.52949H18.6775V1.36445Z" fill="#02363C"/>
<path d="M26.296 6.57314C25.9129 6.57314 25.5637 6.49797 25.2484 6.34762C24.9332 6.19728 24.664 6.00086 24.4409 5.75837C24.2179 5.51103 24.0433 5.22974 23.9172 4.9145C23.7959 4.59927 23.7353 4.27433 23.7353 3.93969C23.7353 3.60021 23.7984 3.27285 23.9244 2.95761C24.0554 2.64237 24.2348 2.36593 24.4628 2.12829C24.6956 1.8858 24.9696 1.69424 25.2848 1.55359C25.6001 1.4081 25.9444 1.33535 26.3178 1.33535C26.701 1.33535 27.0501 1.41052 27.3654 1.56087C27.6806 1.71121 27.9498 1.91005 28.1729 2.15739C28.396 2.40473 28.5681 2.68602 28.6894 3.00126C28.8106 3.31649 28.8712 3.63658 28.8712 3.96152C28.8712 4.301 28.8058 4.62837 28.6748 4.9436C28.5487 5.25884 28.3717 5.5377 28.1438 5.78019C27.9158 6.01783 27.6442 6.2094 27.329 6.3549C27.0138 6.50039 26.6694 6.57314 26.296 6.57314ZM24.9502 3.95424C24.9502 4.15309 24.9793 4.34708 25.0375 4.53622C25.0957 4.72051 25.1805 4.88541 25.2921 5.0309C25.4085 5.17639 25.5516 5.29279 25.7213 5.38009C25.891 5.46738 26.085 5.51103 26.3033 5.51103C26.5312 5.51103 26.7301 5.46496 26.8998 5.37281C27.0695 5.28066 27.2102 5.16184 27.3217 5.01635C27.4333 4.86601 27.5157 4.69869 27.5691 4.5144C27.6273 4.32525 27.6564 4.13369 27.6564 3.93969C27.6564 3.74085 27.6273 3.54929 27.5691 3.36499C27.5109 3.17585 27.4236 3.01096 27.3072 2.87031C27.1908 2.72482 27.0477 2.61085 26.878 2.5284C26.7131 2.44111 26.5215 2.39746 26.3033 2.39746C26.0753 2.39746 25.8765 2.44353 25.7067 2.53568C25.5419 2.62297 25.4012 2.73937 25.2848 2.88486C25.1733 3.03036 25.0884 3.19767 25.0302 3.38682C24.9769 3.57111 24.9502 3.76025 24.9502 3.95424Z" fill="#02363C"/>
<path d="M31.1951 3.15403C31.1321 3.80875 31.052 4.35678 30.955 4.79811C30.8629 5.23459 30.7344 5.5862 30.5695 5.85294C30.4046 6.11483 30.1936 6.30155 29.9366 6.41309C29.6796 6.52464 29.3595 6.58041 28.9763 6.58041L28.94 5.53285C29.1145 5.51345 29.26 5.47223 29.3764 5.40918C29.4977 5.34129 29.5995 5.21519 29.682 5.0309C29.7644 4.84176 29.8323 4.57502 29.8857 4.23068C29.9439 3.88635 29.9996 3.42562 30.053 2.84849L30.1839 1.36445H33.5376V6.52949H32.3445V2.41201H31.2679L31.1951 3.15403Z" fill="#02363C"/>
<path d="M38.1997 5.48193V6.52949H34.5696V1.36445H38.1342V2.41201H35.7627V3.41592H37.7996V4.38345H35.7627V5.48193H38.1997Z" fill="#02363C"/>
<path d="M38.5905 2.05555C38.8233 1.81306 39.0852 1.63119 39.3762 1.50994C39.672 1.38385 40.0212 1.3208 40.4238 1.3208C40.933 1.3208 41.3379 1.43235 41.6386 1.65544C41.9393 1.87853 42.0897 2.20831 42.0897 2.6448C42.0897 2.88729 42.029 3.1128 41.9078 3.32134C41.7914 3.52989 41.5901 3.68508 41.304 3.78693C41.6241 3.86452 41.8666 4.01487 42.0315 4.23796C42.2012 4.4562 42.2861 4.72294 42.2861 5.03817C42.2861 5.28066 42.2376 5.49891 42.1406 5.6929C42.0436 5.88204 41.9078 6.04208 41.7332 6.17303C41.5635 6.30397 41.3598 6.40339 41.1221 6.47129C40.8893 6.53919 40.6371 6.57314 40.3656 6.57314C39.9727 6.57314 39.6284 6.51736 39.3326 6.40582C39.0367 6.28942 38.7554 6.10998 38.4887 5.86749L39.0998 4.98725C39.2647 5.14245 39.4417 5.26854 39.6308 5.36554C39.8248 5.45768 40.0527 5.50376 40.3146 5.50376C40.5329 5.50376 40.7123 5.45041 40.853 5.34371C40.9985 5.23217 41.0712 5.06727 41.0712 4.84903C41.0712 4.66474 41.0033 4.50955 40.8675 4.38345C40.7366 4.25736 40.5232 4.19431 40.2273 4.19431H39.6017V3.36499H40.14C40.4165 3.36499 40.625 3.31649 40.7657 3.2195C40.9063 3.1225 40.9766 2.98428 40.9766 2.80484C40.9766 2.64965 40.9257 2.53083 40.8239 2.44838C40.722 2.36108 40.5644 2.31744 40.351 2.31744C40.1182 2.31744 39.9097 2.35866 39.7254 2.44111C39.5459 2.52355 39.3762 2.64237 39.2162 2.79757L38.5905 2.05555Z" fill="#02363C"/>
<path d="M47.4614 1.36445V6.52949H46.2683V4.41255H44.2096V6.52949H43.0165V1.36445H44.2096V3.36499H46.2683V1.36445H47.4614Z" fill="#02363C"/>
<path d="M48.501 1.36445H49.7013V3.1322H50.6179C50.8943 3.1322 51.1441 3.171 51.3672 3.2486C51.5951 3.32134 51.7891 3.43046 51.9492 3.57596C52.1092 3.7166 52.2329 3.8912 52.3202 4.09974C52.4075 4.30828 52.4511 4.54349 52.4511 4.80538C52.4511 5.07697 52.4075 5.31946 52.3202 5.53285C52.2377 5.74625 52.1165 5.92811 51.9564 6.07846C51.8012 6.22395 51.6145 6.3355 51.3963 6.41309C51.178 6.49069 50.9356 6.52949 50.6688 6.52949H48.501V1.36445ZM53.0986 6.52949V1.36445H54.2916V6.52949H53.0986ZM49.7013 5.51831H50.5233C50.761 5.51831 50.938 5.45526 51.0544 5.32916C51.1756 5.19822 51.2362 5.0212 51.2362 4.79811C51.2362 4.59442 51.1756 4.42467 51.0544 4.28888C50.9331 4.14824 50.7561 4.07791 50.5233 4.07791H49.7013V5.51831Z" fill="#02363C"/>
<path d="M58.9653 5.48193V6.52949H55.3352V1.36445H58.8998V2.41201H56.5282V3.41592H58.5652V4.38345H56.5282V5.48193H58.9653Z" fill="#02363C"/>
<path d="M19.8706 10.6906H20.1397L21.6456 8.63915H22.9914L21.1364 11.1344L23.1587 13.8042H21.8275L20.2488 11.7746H19.8706V13.8042H18.6775V8.63915H19.8706V10.6906Z" fill="#02363C"/>
<path d="M24.9332 8.63915H26.0098L27.894 13.8042H26.6718L26.2717 12.6475H24.664L24.2712 13.8042H23.049L24.9332 8.63915ZM26.0753 11.8255L25.4715 9.99952L24.8532 11.8255H26.0753Z" fill="#02363C"/>
<path d="M32.8693 8.63915V13.8042H31.6763V11.6873H29.6175V13.8042H28.4245V8.63915H29.6175V10.6397H31.6763V8.63915H32.8693Z" fill="#02363C"/>
<path d="M35.1092 11.9491L37.539 8.63915H38.4265V13.8042H37.2335V10.5742L34.8328 13.8042H33.9089V8.63915H35.1092V11.9491Z" fill="#02363C"/>
<path d="M40.6504 10.6906H40.9195L42.4254 8.63915H43.7712L41.9162 11.1344L43.9385 13.8042H42.6072L41.0286 11.7746H40.6504V13.8042H39.4573V8.63915H40.6504V10.6906Z" fill="#02363C"/>
<path d="M45.2983 13.8551C45.245 13.8551 45.1819 13.8503 45.1092 13.8406C45.0364 13.8309 44.9613 13.8187 44.8837 13.8042C44.8109 13.7848 44.7382 13.7605 44.6654 13.7314C44.5927 13.7023 44.5272 13.666 44.469 13.6223L44.68 12.6402C44.7188 12.6645 44.7842 12.7009 44.8764 12.7494C44.9685 12.7979 45.0704 12.8221 45.1819 12.8221C45.308 12.8221 45.4147 12.7882 45.502 12.7203C45.5893 12.6524 45.6596 12.5408 45.713 12.3856L43.807 8.63915H45.1165L46.2513 11.1998L47.2989 8.63915H48.5574L46.7387 12.5675C46.632 12.8003 46.5277 12.9991 46.4259 13.164C46.3289 13.3241 46.2246 13.455 46.1131 13.5569C46.0015 13.6587 45.8803 13.7339 45.7494 13.7824C45.6184 13.8309 45.4681 13.8551 45.2983 13.8551Z" fill="#02363C"/>
<path d="M50.2131 10.4287C50.15 11.0835 50.07 11.6315 49.973 12.0728C49.8809 12.5093 49.7523 12.8609 49.5874 13.1276C49.4226 13.3895 49.2116 13.5763 48.9545 13.6878C48.6975 13.7993 48.3774 13.8551 47.9943 13.8551L47.9579 12.8076C48.1325 12.7882 48.278 12.7469 48.3944 12.6839C48.5156 12.616 48.6175 12.4899 48.6999 12.3056C48.7824 12.1165 48.8503 11.8497 48.9036 11.5054C48.9618 11.1611 49.0176 10.7003 49.0709 10.1232L49.2019 8.63915H52.5555V13.8042H51.3625V9.68671H50.2858L50.2131 10.4287Z" fill="#02363C"/>
<path d="M53.5876 8.63915H54.7879V10.4069H55.7045C55.9809 10.4069 56.2307 10.4457 56.4538 10.5233C56.6817 10.596 56.8757 10.7052 57.0358 10.8507C57.1958 10.9913 57.3195 11.1659 57.4068 11.3744C57.4941 11.583 57.5377 11.8182 57.5377 12.0801C57.5377 12.3517 57.4941 12.5942 57.4068 12.8076C57.3243 13.021 57.2031 13.2028 57.043 13.3532C56.8879 13.4987 56.7011 13.6102 56.4829 13.6878C56.2647 13.7654 56.0222 13.8042 55.7554 13.8042H53.5876V8.63915ZM58.1852 13.8042V8.63915H59.3782V13.8042H58.1852ZM54.7879 12.793H55.6099C55.8476 12.793 56.0246 12.73 56.141 12.6039C56.2622 12.4729 56.3228 12.2959 56.3228 12.0728C56.3228 11.8691 56.2622 11.6994 56.141 11.5636C56.0197 11.4229 55.8427 11.3526 55.6099 11.3526H54.7879V12.793Z" fill="#02363C"/>
<path d="M20.9181 21.1225C20.535 21.1225 20.1858 21.0474 19.8706 20.897C19.5553 20.7467 19.2862 20.5503 19.0631 20.3078C18.84 20.0604 18.6654 19.7791 18.5393 19.4639C18.418 19.1487 18.3574 18.8237 18.3574 18.4891C18.3574 18.1496 18.4205 17.8223 18.5466 17.507C18.6775 17.1918 18.857 16.9153 19.0849 16.6777C19.3177 16.4352 19.5917 16.2436 19.9069 16.103C20.2222 15.9575 20.5665 15.8848 20.9399 15.8848C21.3231 15.8848 21.6723 15.9599 21.9875 16.1103C22.3027 16.2606 22.5719 16.4595 22.795 16.7068C23.0181 16.9541 23.1903 17.2354 23.3115 17.5507C23.4327 17.8659 23.4934 18.186 23.4934 18.5109C23.4934 18.8504 23.4279 19.1778 23.2969 19.493C23.1709 19.8082 22.9938 20.0871 22.7659 20.3296C22.538 20.5672 22.2664 20.7588 21.9511 20.9043C21.6359 21.0498 21.2916 21.1225 20.9181 21.1225ZM19.5723 18.5037C19.5723 18.7025 19.6014 18.8965 19.6596 19.0856C19.7178 19.2699 19.8027 19.4348 19.9142 19.5803C20.0306 19.7258 20.1737 19.8422 20.3434 19.9295C20.5132 20.0168 20.7072 20.0604 20.9254 20.0604C21.1533 20.0604 21.3522 20.0144 21.5219 19.9222C21.6917 19.8301 21.8323 19.7113 21.9439 19.5658C22.0554 19.4154 22.1378 19.2481 22.1912 19.0638C22.2494 18.8747 22.2785 18.6831 22.2785 18.4891C22.2785 18.2903 22.2494 18.0987 22.1912 17.9144C22.133 17.7253 22.0457 17.5604 21.9293 17.4197C21.8129 17.2742 21.6698 17.1603 21.5001 17.0778C21.3352 16.9905 21.1436 16.9469 20.9254 16.9469C20.6975 16.9469 20.4986 16.9929 20.3289 17.0851C20.164 17.1724 20.0233 17.2888 19.9069 17.4343C19.7954 17.5798 19.7105 17.7471 19.6523 17.9362C19.599 18.1205 19.5723 18.3097 19.5723 18.5037Z" fill="#02363C"/>
<path d="M27.8768 16.9614H26.3055V21.0789H25.1124V16.9614H23.5338V15.9139H27.8768V16.9614Z" fill="#02363C"/>
<path d="M32.1114 20.0313V21.0789H28.4813V15.9139H32.0459V16.9614H29.6744V17.9653H31.7113V18.9329H29.6744V20.0313H32.1114Z" fill="#02363C"/>
<path d="M34.6762 17.7034C34.6131 18.3582 34.5331 18.9062 34.4361 19.3475C34.344 19.784 34.2154 20.1356 34.0505 20.4023C33.8857 20.6642 33.6747 20.851 33.4177 20.9625C33.1606 21.074 32.8405 21.1298 32.4574 21.1298L32.421 20.0823C32.5956 20.0629 32.7411 20.0216 32.8575 19.9586C32.9787 19.8907 33.0806 19.7646 33.163 19.5803C33.2455 19.3912 33.3134 19.1244 33.3667 18.7801C33.4249 18.4358 33.4807 17.975 33.534 17.3979L33.665 15.9139H37.0186V21.0789H35.8256V16.9614H34.7489L34.6762 17.7034Z" fill="#02363C"/>
<path d="M38.0507 15.9139H39.251V17.6816H40.1676C40.444 17.6816 40.6938 17.7204 40.9169 17.798C41.1448 17.8708 41.3388 17.9799 41.4989 18.1254C41.6589 18.266 41.7826 18.4406 41.8699 18.6491C41.9572 18.8577 42.0008 19.0929 42.0008 19.3548C42.0008 19.6264 41.9572 19.8689 41.8699 20.0823C41.7874 20.2957 41.6662 20.4775 41.5062 20.6279C41.351 20.7734 41.1642 20.8849 40.946 20.9625C40.7278 21.0401 40.4853 21.0789 40.2185 21.0789H38.0507V15.9139ZM39.251 20.0677H40.073C40.3107 20.0677 40.4877 20.0047 40.6041 19.8786C40.7253 19.7476 40.786 19.5706 40.786 19.3475C40.786 19.1438 40.7253 18.9741 40.6041 18.8383C40.4828 18.6976 40.3058 18.6273 40.073 18.6273H39.251V20.0677Z" fill="#02363C"/>
<path d="M46.3056 20.0313V21.0789H42.6755V15.9139H46.2401V16.9614H43.8686V17.9653H45.9055V18.9329H43.8686V20.0313H46.3056Z" fill="#02363C"/>
<path d="M47.0517 21.0789V15.9139H49.2559C49.5033 15.9139 49.7288 15.9648 49.9325 16.0666C50.141 16.1685 50.318 16.3018 50.4635 16.4667C50.6139 16.6316 50.7303 16.8183 50.8127 17.0269C50.9 17.2354 50.9437 17.4464 50.9437 17.6598C50.9437 17.8877 50.9024 18.106 50.82 18.3145C50.7424 18.5231 50.6309 18.7098 50.4854 18.8747C50.3447 19.0396 50.1725 19.1705 49.9689 19.2675C49.7652 19.3645 49.5396 19.413 49.2923 19.413H48.2447V21.0789H47.0517ZM48.2447 18.3727H49.2196C49.3602 18.3727 49.4814 18.3121 49.5833 18.1908C49.6851 18.0696 49.7361 17.8926 49.7361 17.6598C49.7361 17.5385 49.7191 17.4343 49.6851 17.347C49.656 17.2597 49.6148 17.1869 49.5615 17.1287C49.5081 17.0705 49.4475 17.0293 49.3796 17.0051C49.3117 16.976 49.2438 16.9614 49.1759 16.9614H48.2447V18.3727Z" fill="#02363C"/>
<path d="M52.6609 15.9139H53.7375L55.6217 21.0789H54.3995L53.9994 19.9222H52.3917L51.9989 21.0789H50.7767L52.6609 15.9139ZM53.803 19.1002L53.1992 17.2742L52.5809 19.1002H53.803Z" fill="#02363C"/>
<path fill-rule="evenodd" clip-rule="evenodd" d="M7.67936 9.14863L8.32016 8.69712C9.2584 8.03603 9.86591 6.94926 9.86591 5.72075C9.86591 3.7119 8.23742 2.0834 6.22856 2.0834C4.21971 2.0834 2.59121 3.7119 2.59121 5.72075C2.59121 6.94926 3.19872 8.03603 4.13697 8.69712L4.77777 9.14863L5.33524 19.4619H7.12189L7.67936 9.14863ZM8.65346 21.0785H3.80366L3.20583 10.0186C1.85624 9.06771 0.974609 7.49719 0.974609 5.72075C0.974609 2.81907 3.32688 0.466797 6.22856 0.466797C9.13024 0.466797 11.4825 2.81907 11.4825 5.72075C11.4825 7.49719 10.6009 9.06771 9.25129 10.0186L8.65346 21.0785Z" fill="#02363C"/>
</svg>
