<svg width="40" height="40" viewBox="0 0 40 40" fill="none" xmlns="http://www.w3.org/2000/svg">
<path opacity="0.2" fill-rule="evenodd" clip-rule="evenodd" d="M20 40C31.0457 40 40 31.0457 40 20C40 8.9543 31.0457 0 20 0C8.9543 0 0 8.9543 0 20C0 31.0457 8.9543 40 20 40ZM25.7143 20L17.1429 14.7619V25.2381L25.7143 20Z" fill="white"/>
<path fill-rule="evenodd" clip-rule="evenodd" d="M20.0005 31.9052C26.5753 31.9052 31.9052 26.5753 31.9052 20.0005C31.9052 13.4256 26.5753 8.0957 20.0005 8.0957C13.4256 8.0957 8.0957 13.4256 8.0957 20.0005C8.0957 26.5753 13.4256 31.9052 20.0005 31.9052ZM25.7148 20.0005L17.1433 14.7624V25.2386L25.7148 20.0005Z" fill="white"/>
<path opacity="0.3" fill-rule="evenodd" clip-rule="evenodd" d="M19.9994 35.7147C28.6782 35.7147 35.7137 28.6792 35.7137 20.0004C35.7137 11.3217 28.6782 4.28613 19.9994 4.28613C11.3207 4.28613 4.28516 11.3217 4.28516 20.0004C4.28516 28.6792 11.3207 35.7147 19.9994 35.7147ZM25.7137 20.0004L17.1423 14.7623V25.2385L25.7137 20.0004Z" fill="white"/>
</svg>
