<svg width="98" height="36" viewBox="0 0 98 36" fill="none" xmlns="http://www.w3.org/2000/svg">
<path d="M29.1999 1.47874H36.3639V9.99874H34.3959V3.20674H31.1799V9.99874H29.1999V1.47874Z" fill="#02363C"/>
<path d="M41.767 10.0707C41.135 10.0707 40.559 9.94674 40.039 9.69874C39.519 9.45074 39.075 9.12674 38.707 8.72674C38.339 8.31874 38.051 7.85474 37.843 7.33474C37.643 6.81474 37.543 6.27874 37.543 5.72674C37.543 5.16674 37.647 4.62674 37.855 4.10674C38.071 3.58674 38.367 3.13074 38.743 2.73874C39.127 2.33874 39.579 2.02274 40.099 1.79074C40.619 1.55074 41.187 1.43074 41.803 1.43074C42.435 1.43074 43.011 1.55474 43.531 1.80274C44.051 2.05074 44.495 2.37874 44.863 2.78674C45.231 3.19474 45.515 3.65874 45.715 4.17874C45.915 4.69874 46.015 5.22674 46.015 5.76274C46.015 6.32274 45.907 6.86274 45.691 7.38274C45.483 7.90274 45.191 8.36274 44.815 8.76274C44.439 9.15474 43.991 9.47074 43.471 9.71074C42.951 9.95074 42.383 10.0707 41.767 10.0707ZM39.547 5.75074C39.547 6.07874 39.595 6.39874 39.691 6.71074C39.787 7.01474 39.927 7.28674 40.111 7.52674C40.303 7.76674 40.539 7.95874 40.819 8.10274C41.099 8.24674 41.419 8.31874 41.779 8.31874C42.155 8.31874 42.483 8.24274 42.763 8.09074C43.043 7.93874 43.275 7.74274 43.459 7.50274C43.643 7.25474 43.779 6.97874 43.867 6.67474C43.963 6.36274 44.011 6.04674 44.011 5.72674C44.011 5.39874 43.963 5.08274 43.867 4.77874C43.771 4.46674 43.627 4.19474 43.435 3.96274C43.243 3.72274 43.007 3.53474 42.727 3.39874C42.455 3.25474 42.139 3.18274 41.779 3.18274C41.403 3.18274 41.075 3.25874 40.795 3.41074C40.523 3.55474 40.291 3.74674 40.099 3.98674C39.915 4.22674 39.775 4.50274 39.679 4.81474C39.591 5.11874 39.547 5.43074 39.547 5.75074Z" fill="#02363C"/>
<path d="M49.8483 4.43074C49.7443 5.51074 49.6123 6.41474 49.4523 7.14274C49.3003 7.86274 49.0883 8.44274 48.8163 8.88274C48.5443 9.31474 48.1963 9.62274 47.7723 9.80674C47.3483 9.99074 46.8203 10.0827 46.1883 10.0827L46.1283 8.35474C46.4163 8.32274 46.6563 8.25474 46.8483 8.15074C47.0483 8.03874 47.2163 7.83074 47.3523 7.52674C47.4883 7.21474 47.6003 6.77474 47.6883 6.20674C47.7843 5.63874 47.8763 4.87874 47.9643 3.92674L48.1803 1.47874H53.7123V9.99874H51.7443V3.20674H49.9683L49.8483 4.43074Z" fill="#02363C"/>
<path d="M61.4027 8.27074V9.99874H55.4147V1.47874H61.2947V3.20674H57.3827V4.86274H60.7427V6.45874H57.3827V8.27074H61.4027Z" fill="#02363C"/>
<path d="M62.0474 2.61874C62.4314 2.21874 62.8634 1.91874 63.3434 1.71874C63.8314 1.51074 64.4074 1.40674 65.0714 1.40674C65.9114 1.40674 66.5794 1.59074 67.0754 1.95874C67.5714 2.32674 67.8194 2.87074 67.8194 3.59074C67.8194 3.99074 67.7194 4.36274 67.5194 4.70674C67.3274 5.05074 66.9954 5.30674 66.5234 5.47474C67.0514 5.60274 67.4514 5.85074 67.7234 6.21874C68.0034 6.57874 68.1434 7.01874 68.1434 7.53874C68.1434 7.93874 68.0634 8.29874 67.9034 8.61874C67.7434 8.93074 67.5194 9.19474 67.2314 9.41074C66.9514 9.62674 66.6154 9.79074 66.2234 9.90274C65.8394 10.0147 65.4234 10.0707 64.9754 10.0707C64.3274 10.0707 63.7594 9.97874 63.2714 9.79474C62.7834 9.60274 62.3194 9.30674 61.8794 8.90674L62.8874 7.45474C63.1594 7.71074 63.4514 7.91874 63.7634 8.07874C64.0834 8.23074 64.4594 8.30674 64.8914 8.30674C65.2514 8.30674 65.5474 8.21874 65.7794 8.04274C66.0194 7.85874 66.1394 7.58674 66.1394 7.22674C66.1394 6.92274 66.0274 6.66674 65.8034 6.45874C65.5874 6.25074 65.2354 6.14674 64.7474 6.14674H63.7154V4.77874H64.6034C65.0594 4.77874 65.4034 4.69874 65.6354 4.53874C65.8674 4.37874 65.9834 4.15074 65.9834 3.85474C65.9834 3.59874 65.8994 3.40274 65.7314 3.26674C65.5634 3.12274 65.3034 3.05074 64.9514 3.05074C64.5674 3.05074 64.2234 3.11874 63.9194 3.25474C63.6234 3.39074 63.3434 3.58674 63.0794 3.84274L62.0474 2.61874Z" fill="#02363C"/>
<path d="M76.6803 1.47874V9.99874H74.7123V6.50674H71.3163V9.99874H69.3483V1.47874H71.3163V4.77874H74.7123V1.47874H76.6803Z" fill="#02363C"/>
<path d="M78.3952 1.47874H80.3752V4.39474H81.8872C82.3432 4.39474 82.7552 4.45874 83.1232 4.58674C83.4992 4.70674 83.8192 4.88674 84.0832 5.12674C84.3472 5.35874 84.5512 5.64674 84.6952 5.99074C84.8392 6.33474 84.9112 6.72274 84.9112 7.15474C84.9112 7.60274 84.8392 8.00274 84.6952 8.35474C84.5592 8.70674 84.3592 9.00674 84.0952 9.25474C83.8392 9.49474 83.5312 9.67874 83.1712 9.80674C82.8112 9.93474 82.4112 9.99874 81.9712 9.99874H78.3952V1.47874ZM85.9792 9.99874V1.47874H87.9472V9.99874H85.9792ZM80.3752 8.33074H81.7312C82.1232 8.33074 82.4152 8.22674 82.6072 8.01874C82.8072 7.80274 82.9072 7.51074 82.9072 7.14274C82.9072 6.80674 82.8072 6.52674 82.6072 6.30274C82.4072 6.07074 82.1152 5.95474 81.7312 5.95474H80.3752V8.33074Z" fill="#02363C"/>
<path d="M95.6566 8.27074V9.99874H89.6686V1.47874H95.5486V3.20674H91.6366V4.86274H94.9966V6.45874H91.6366V8.27074H95.6566Z" fill="#02363C"/>
<path d="M31.1679 16.8627H31.6119L34.0959 13.4787H36.3159L33.2559 17.5947L36.5919 21.9987H34.3959L31.7919 18.6507H31.1679V21.9987H29.1999V13.4787H31.1679V16.8627Z" fill="#02363C"/>
<path d="M39.5189 13.4787H41.2949L44.4029 21.9987H42.3869L41.7269 20.0907H39.0749L38.4269 21.9987H36.4109L39.5189 13.4787ZM41.4029 18.7347L40.4069 15.7227L39.3869 18.7347H41.4029Z" fill="#02363C"/>
<path d="M52.61 13.4787V21.9987H50.642V18.5067H47.246V21.9987H45.278V13.4787H47.246V16.7787H50.642V13.4787H52.61Z" fill="#02363C"/>
<path d="M56.3049 18.9387L60.3129 13.4787H61.7769V21.9987H59.8089V16.6707L55.8489 21.9987H54.3249V13.4787H56.3049V18.9387Z" fill="#02363C"/>
<path d="M65.4452 16.8627H65.8892L68.3732 13.4787H70.5932L67.5332 17.5947L70.8692 21.9987H68.6732L66.0692 18.6507H65.4452V21.9987H63.4772V13.4787H65.4452V16.8627Z" fill="#02363C"/>
<path d="M73.1123 22.0827C73.0243 22.0827 72.9203 22.0747 72.8003 22.0587C72.6803 22.0427 72.5563 22.0227 72.4283 21.9987C72.3083 21.9667 72.1883 21.9267 72.0683 21.8787C71.9483 21.8307 71.8403 21.7707 71.7443 21.6987L72.0923 20.0787C72.1563 20.1187 72.2643 20.1787 72.4163 20.2587C72.5683 20.3387 72.7363 20.3787 72.9203 20.3787C73.1283 20.3787 73.3043 20.3227 73.4483 20.2107C73.5923 20.0987 73.7083 19.9147 73.7963 19.6587L70.6523 13.4787H72.8123L74.6843 17.7027L76.4123 13.4787H78.4883L75.4883 19.9587C75.3123 20.3427 75.1403 20.6707 74.9723 20.9427C74.8123 21.2067 74.6403 21.4227 74.4563 21.5907C74.2723 21.7587 74.0723 21.8827 73.8563 21.9627C73.6403 22.0427 73.3923 22.0827 73.1123 22.0827Z" fill="#02363C"/>
<path d="M81.2194 16.4307C81.1154 17.5107 80.9834 18.4147 80.8234 19.1427C80.6714 19.8627 80.4594 20.4427 80.1874 20.8827C79.9154 21.3147 79.5674 21.6227 79.1434 21.8067C78.7194 21.9907 78.1914 22.0827 77.5594 22.0827L77.4994 20.3547C77.7874 20.3227 78.0274 20.2547 78.2194 20.1507C78.4194 20.0387 78.5874 19.8307 78.7234 19.5267C78.8594 19.2147 78.9714 18.7747 79.0594 18.2067C79.1554 17.6387 79.2474 16.8787 79.3354 15.9267L79.5514 13.4787H85.0834V21.9987H83.1154V15.2067H81.3394L81.2194 16.4307Z" fill="#02363C"/>
<path d="M86.7858 13.4787H88.7658V16.3947H90.2778C90.7338 16.3947 91.1458 16.4587 91.5138 16.5867C91.8898 16.7067 92.2098 16.8867 92.4738 17.1267C92.7378 17.3587 92.9418 17.6467 93.0858 17.9907C93.2298 18.3347 93.3018 18.7227 93.3018 19.1547C93.3018 19.6027 93.2298 20.0027 93.0858 20.3547C92.9498 20.7067 92.7498 21.0067 92.4858 21.2547C92.2298 21.4947 91.9218 21.6787 91.5618 21.8067C91.2018 21.9347 90.8018 21.9987 90.3618 21.9987H86.7858V13.4787ZM94.3698 21.9987V13.4787H96.3378V21.9987H94.3698ZM88.7658 20.3307H90.1218C90.5138 20.3307 90.8058 20.2267 90.9978 20.0187C91.1978 19.8027 91.2978 19.5107 91.2978 19.1427C91.2978 18.8067 91.1978 18.5267 90.9978 18.3027C90.7978 18.0707 90.5058 17.9547 90.1218 17.9547H88.7658V20.3307Z" fill="#02363C"/>
<path d="M32.8959 34.0707C32.2639 34.0707 31.6879 33.9467 31.1679 33.6987C30.6479 33.4507 30.2039 33.1267 29.8359 32.7267C29.4679 32.3187 29.1799 31.8547 28.9719 31.3347C28.7719 30.8147 28.6719 30.2787 28.6719 29.7267C28.6719 29.1667 28.7759 28.6267 28.9839 28.1067C29.1999 27.5867 29.4959 27.1307 29.8719 26.7387C30.2559 26.3387 30.7079 26.0227 31.2279 25.7907C31.7479 25.5507 32.3159 25.4307 32.9319 25.4307C33.5639 25.4307 34.1399 25.5547 34.6599 25.8027C35.1799 26.0507 35.6239 26.3787 35.9919 26.7867C36.3599 27.1947 36.6439 27.6587 36.8439 28.1787C37.0439 28.6987 37.1439 29.2267 37.1439 29.7627C37.1439 30.3227 37.0359 30.8627 36.8199 31.3827C36.6119 31.9027 36.3199 32.3627 35.9439 32.7627C35.5679 33.1547 35.1199 33.4707 34.5999 33.7107C34.0799 33.9507 33.5119 34.0707 32.8959 34.0707ZM30.6759 29.7507C30.6759 30.0787 30.7239 30.3987 30.8199 30.7107C30.9159 31.0147 31.0559 31.2867 31.2399 31.5267C31.4319 31.7667 31.6679 31.9587 31.9479 32.1027C32.2279 32.2467 32.5479 32.3187 32.9079 32.3187C33.2839 32.3187 33.6119 32.2427 33.8919 32.0907C34.1719 31.9387 34.4039 31.7427 34.5879 31.5027C34.7719 31.2547 34.9079 30.9787 34.9959 30.6747C35.0919 30.3627 35.1399 30.0467 35.1399 29.7267C35.1399 29.3987 35.0919 29.0827 34.9959 28.7787C34.8999 28.4667 34.7559 28.1947 34.5639 27.9627C34.3719 27.7227 34.1359 27.5347 33.8559 27.3987C33.5839 27.2547 33.2679 27.1827 32.9079 27.1827C32.5319 27.1827 32.2039 27.2587 31.9239 27.4107C31.6519 27.5547 31.4199 27.7467 31.2279 27.9867C31.0439 28.2267 30.9039 28.5027 30.8079 28.8147C30.7199 29.1187 30.6759 29.4307 30.6759 29.7507Z" fill="#02363C"/>
<path d="M44.3746 27.2067H41.7826V33.9987H39.8146V27.2067H37.2106V25.4787H44.3746V27.2067Z" fill="#02363C"/>
<path d="M51.3597 32.2707V33.9987H45.3717V25.4787H51.2517V27.2067H47.3397V28.8627H50.6997V30.4587H47.3397V32.2707H51.3597Z" fill="#02363C"/>
<path d="M55.5905 28.4307C55.4865 29.5107 55.3545 30.4147 55.1945 31.1427C55.0425 31.8627 54.8305 32.4427 54.5585 32.8827C54.2865 33.3147 53.9385 33.6227 53.5145 33.8067C53.0905 33.9907 52.5625 34.0827 51.9305 34.0827L51.8705 32.3547C52.1585 32.3227 52.3985 32.2547 52.5905 32.1507C52.7905 32.0387 52.9585 31.8307 53.0945 31.5267C53.2305 31.2147 53.3425 30.7747 53.4305 30.2067C53.5265 29.6387 53.6185 28.8787 53.7065 27.9267L53.9225 25.4787H59.4545V33.9987H57.4865V27.2067H55.7105L55.5905 28.4307Z" fill="#02363C"/>
<path d="M61.1569 25.4787H63.1369V28.3947H64.6489C65.1049 28.3947 65.5169 28.4587 65.8849 28.5867C66.2609 28.7067 66.5809 28.8867 66.8449 29.1267C67.1089 29.3587 67.3129 29.6467 67.4569 29.9907C67.6009 30.3347 67.6729 30.7227 67.6729 31.1547C67.6729 31.6027 67.6009 32.0027 67.4569 32.3547C67.3209 32.7067 67.1209 33.0067 66.8569 33.2547C66.6009 33.4947 66.2929 33.6787 65.9329 33.8067C65.5729 33.9347 65.1729 33.9987 64.7329 33.9987H61.1569V25.4787ZM63.1369 32.3307H64.4929C64.8849 32.3307 65.1769 32.2267 65.3689 32.0187C65.5689 31.8027 65.6689 31.5107 65.6689 31.1427C65.6689 30.8067 65.5689 30.5267 65.3689 30.3027C65.1689 30.0707 64.8769 29.9547 64.4929 29.9547H63.1369V32.3307Z" fill="#02363C"/>
<path d="M74.7738 32.2707V33.9987H68.7858V25.4787H74.6658V27.2067H70.7538V28.8627H74.1138V30.4587H70.7538V32.2707H74.7738Z" fill="#02363C"/>
<path d="M76.0046 33.9987V25.4787H79.6406C80.0486 25.4787 80.4206 25.5627 80.7566 25.7307C81.1006 25.8987 81.3926 26.1187 81.6326 26.3907C81.8806 26.6627 82.0726 26.9707 82.2086 27.3147C82.3526 27.6587 82.4246 28.0067 82.4246 28.3587C82.4246 28.7347 82.3566 29.0947 82.2206 29.4387C82.0926 29.7827 81.9086 30.0907 81.6686 30.3627C81.4366 30.6347 81.1526 30.8507 80.8166 31.0107C80.4806 31.1707 80.1086 31.2507 79.7006 31.2507H77.9726V33.9987H76.0046ZM77.9726 29.5347H79.5806C79.8126 29.5347 80.0126 29.4347 80.1806 29.2347C80.3486 29.0347 80.4326 28.7427 80.4326 28.3587C80.4326 28.1587 80.4046 27.9867 80.3486 27.8427C80.3006 27.6987 80.2326 27.5787 80.1446 27.4827C80.0566 27.3867 79.9566 27.3187 79.8446 27.2787C79.7326 27.2307 79.6206 27.2067 79.5086 27.2067H77.9726V29.5347Z" fill="#02363C"/>
<path d="M85.2572 25.4787H87.0332L90.1412 33.9987H88.1252L87.4652 32.0907H84.8132L84.1652 33.9987H82.1492L85.2572 25.4787ZM87.1412 30.7347L86.1452 27.7227L85.1252 30.7347H87.1412Z" fill="#02363C"/>
<path fill-rule="evenodd" clip-rule="evenodd" d="M11.0598 14.3211L12.1169 13.5763C13.6645 12.4858 14.6667 10.6932 14.6667 8.66667C14.6667 5.35296 11.9804 2.66667 8.66667 2.66667C5.35296 2.66667 2.66667 5.35296 2.66667 8.66667C2.66667 10.6932 3.66879 12.4858 5.21647 13.5763L6.2735 14.3211L7.19308 31.3333H10.1403L11.0598 14.3211ZM12.6667 34H4.66667L3.68052 15.7562C1.4543 14.1876 0 11.597 0 8.66667C0 3.8802 3.8802 0 8.66667 0C13.4531 0 17.3333 3.8802 17.3333 8.66667C17.3333 11.597 15.879 14.1876 13.6528 15.7562L12.6667 34Z" fill="#02363C"/>
</svg>
